<svg width="48" height="48" viewBox="0 0 48 48" fill="none" xmlns="http://www.w3.org/2000/svg">
<path d="M28.9887 36.9672C38.619 33.0054 45.7568 28.1674 44.9315 26.1613C44.1062 24.1552 35.6303 25.7406 26.0001 29.7025C16.3698 33.6643 9.23203 38.5022 10.0573 40.5084C10.8826 42.5145 19.3585 40.929 28.9887 36.9672Z" fill="#BD851D"/>
<path d="M27.8249 34.1041C32.5339 32.1679 35.8705 29.4291 35.2775 27.9867C34.6844 26.5444 30.3863 26.9447 25.6773 28.8809C20.9683 30.8171 17.6316 33.556 18.2247 34.9983C18.8177 36.4407 23.1159 36.0403 27.8249 34.1041Z" fill="#844F15"/>
<path d="M22.2593 36.0604L21.5851 31.5379C21.4658 30.7399 20.4316 30.2292 19.2698 30.4032C18.1081 30.5772 17.2658 31.3647 17.3851 32.1649L18.0608 36.6874C15.8461 37.6212 14.4346 39.3919 14.7031 41.1807C15.0473 43.4892 18.0293 44.9532 21.3691 44.4529C24.7021 43.9549 27.1276 41.6839 26.7856 39.3762C26.5171 37.5859 24.6496 36.3072 22.2556 36.0604" fill="#FBB041"/>
<path d="M17.0836 40.8225C16.8166 39.0322 18.2311 37.2615 20.4406 36.3292L19.7648 31.8067C19.6921 31.3117 19.9913 30.8205 20.4976 30.4785C20.0992 30.3613 19.6798 30.3346 19.2698 30.4005C18.1081 30.5745 17.2658 31.362 17.3851 32.1622L18.0608 36.6847C15.8461 37.6185 14.4346 39.3892 14.7031 41.178C15.0473 43.4865 18.0293 44.9505 21.3691 44.4502C21.7673 44.3897 22.1612 44.303 22.5481 44.1907C19.7228 44.2222 17.3873 42.8467 17.0836 40.8225Z" fill="#E09734"/>
<path d="M25.9798 39.5493C26.0623 40.1088 25.9843 40.6481 25.7863 41.1071C25.7361 41.2196 25.6791 41.3298 25.6138 41.4311C25.3768 41.7783 24.7318 42.3821 24.6253 41.8893C24.5812 41.6769 24.5239 41.4675 24.4536 41.2623C24.4179 41.1619 24.3796 41.0623 24.3388 40.9638C23.8798 39.5688 22.8741 39.7713 22.0581 39.2336C21.6538 38.9898 21.9403 38.4393 22.1571 38.1776C22.2291 38.0778 22.3048 37.9886 22.3821 37.9068C22.6948 37.5783 23.0481 37.3758 23.4433 37.3413C23.5598 37.3247 23.6774 37.3179 23.7951 37.3211C24.8511 37.3646 25.7908 38.2908 25.9798 39.5493Z" fill="#F9C178"/>
<path d="M20.2445 5.10679C20.7868 6.42379 19.679 8.12929 17.7725 8.91154C15.8615 9.69904 13.8778 9.26554 13.3355 7.94779C12.7933 6.63079 13.8995 4.92529 15.8113 4.14079C17.7155 3.35704 19.7023 3.78904 20.2445 5.10679Z" fill="#FBB041"/>
<path d="M19.1631 4.86118C19.2651 5.10793 19.2433 5.38468 19.1241 5.65018C19.0927 5.71751 19.0569 5.78266 19.0168 5.84518C18.8601 6.06643 18.4116 6.50818 18.2968 6.29893C18.2245 6.15901 18.1294 6.03204 18.0156 5.92318C17.5708 5.36818 16.8193 5.70193 16.1661 5.63893C15.8421 5.62018 16.0213 5.28868 16.1676 5.11243C16.2163 5.04793 16.2666 4.98793 16.3236 4.93018C16.5331 4.69777 16.7951 4.5188 17.0878 4.40818C17.176 4.37352 17.2656 4.34249 17.3563 4.31518C18.1588 4.08643 18.9351 4.30543 19.1631 4.86118Z" fill="#F9C178"/>
<path d="M16.0199 6.19769C15.7342 5.50469 15.8467 4.7172 16.2599 3.98145C16.1081 4.02868 15.9582 4.08197 15.8107 4.1412C13.8997 4.9272 12.7957 6.6312 13.3349 7.9482C13.8772 9.2652 15.8609 9.6987 17.7719 8.91195C18.4732 8.6247 19.0672 8.2107 19.5104 7.7382C17.9009 7.9107 16.4879 7.34144 16.0199 6.19769Z" fill="#E09734"/>
<path fill-rule="evenodd" clip-rule="evenodd" d="M37.6423 22.5377C34.6783 21.1045 32.6113 18.8972 31.0145 16.2385C29.507 13.7207 28.292 11.0612 27.122 8.38973C26.4133 6.77723 25.2283 6.18323 23.3825 6.31448C22.1152 6.40793 20.8599 6.62369 19.634 6.95873C18.9298 7.21298 18.23 7.47698 17.522 7.74623C16.7645 8.07923 16.022 8.41148 15.281 8.75723C14.9023 8.93498 14.5235 9.11423 14.1478 9.29498C13.1903 9.86194 12.2828 10.5093 11.435 11.23C10.031 12.4337 9.6058 13.6892 10.2373 15.3355C11.285 18.0557 12.293 20.7985 12.992 23.653C13.7293 26.668 13.811 29.6905 12.7138 32.794C12.1498 34.3892 11.4688 35.9455 10.8028 37.5077C10.3753 38.5075 9.96655 39.5102 10.0438 40.582C10.1863 40.6637 10.2875 40.6217 10.3595 40.4762C11.282 38.6312 12.9763 37.4275 14.6563 36.2432C17.5498 34.2032 20.7013 32.5765 23.9203 31.0697C24.659 30.7225 25.4068 30.394 26.1613 30.061C26.9315 29.7647 27.6958 29.4745 28.4653 29.2015C31.8163 28.0045 35.1973 26.944 38.6893 26.3597C40.715 26.0185 42.767 25.684 44.7193 26.344C44.8745 26.398 44.9743 26.3575 45.0163 26.2C44.3195 25.3847 43.3198 24.9587 42.3155 24.5485C40.742 23.9057 39.164 23.2772 37.6415 22.5415" fill="#FBB041"/>
<path fill-rule="evenodd" clip-rule="evenodd" d="M42.3074 24.5329C40.7339 23.8917 39.1559 23.2617 37.6334 22.5274C34.6694 21.0942 32.6024 18.8862 31.0042 16.2267C29.4967 13.7089 28.2817 11.0494 27.1124 8.37943C26.4037 6.76543 25.2187 6.17293 23.3722 6.30493C22.1053 6.39714 20.8504 6.61241 19.6252 6.94768C18.9217 7.20268 18.2219 7.46668 17.5132 7.73668C17.0909 7.92193 16.6724 8.11543 16.2524 8.30368C16.5209 8.20318 16.7917 8.09968 17.0639 8.00068C18.2947 7.66918 19.5389 7.44868 20.8124 7.35643C22.6574 7.22593 23.8424 7.81993 24.5512 9.43468C25.7227 12.1054 26.9362 14.7642 28.4429 17.2804C30.0412 19.9429 32.1082 22.1479 35.0722 23.5812C36.5947 24.3169 38.1734 24.9454 39.7462 25.5867C40.0934 25.7277 40.4362 25.8792 40.7692 26.0397C42.0997 25.8957 43.4272 25.8972 44.7112 26.3307C44.8649 26.3817 44.9654 26.3419 45.0082 26.1859C44.3114 25.3669 43.3117 24.9417 42.3074 24.5329Z" fill="#F9C178"/>
<path fill-rule="evenodd" clip-rule="evenodd" d="M16.0875 34.4572C16.7542 32.8935 17.4345 31.3365 17.9985 29.7427C19.0957 26.6392 19.014 23.616 18.2752 20.6017C17.5777 17.751 16.5682 15.0097 15.522 12.2842C14.8905 10.6387 15.3165 9.38248 16.7212 8.17723C16.8075 8.10148 16.899 8.03098 16.9882 7.95898C16.413 8.21698 15.8377 8.46673 15.2722 8.73373C14.892 8.91148 14.5132 9.09073 14.1375 9.27073C13.1804 9.83704 12.2734 10.4839 11.4262 11.2042C10.0207 12.408 9.59548 13.6657 10.2285 15.3097C11.2755 18.0322 12.2842 20.7765 12.9825 23.6272C13.7212 26.6422 13.803 29.6647 12.7042 32.7667C12.1402 34.3627 11.4607 35.9182 10.7947 37.4835C10.3672 38.4817 9.95848 39.4845 10.0357 40.5547C10.1782 40.638 10.2772 40.5945 10.35 40.4497C11.274 38.6055 12.9667 37.4025 14.6467 36.2167C14.9842 35.9812 15.327 35.748 15.6712 35.52C15.795 35.163 15.9367 34.8075 16.0875 34.455" fill="#E09734"/>
<path d="M46.6276 20.6646C46.3666 20.2858 46.1078 19.9071 45.8498 19.5358C45.8101 19.4758 45.7951 19.4248 45.7666 19.3708C45.7321 19.3123 45.6938 19.2531 45.6691 19.1871C45.6286 19.0881 45.6031 18.9838 45.5933 18.8773C45.5918 18.8571 45.5806 18.8383 45.5776 18.8143C45.2881 15.0043 43.1978 11.1936 39.8153 8.51531C37.9981 7.07606 37.6073 7.56956 36.2633 5.61731C35.7151 4.81931 36.0638 4.14131 36.7253 4.39481C42.7921 6.70781 47.9348 14.1748 47.9311 20.6661C47.9318 21.3748 47.1736 21.4596 46.6276 20.6646Z" fill="#27AAE1"/>
<path d="M42.9075 21.3332L42.2692 20.4077C42.2362 20.3574 42.2235 20.3214 42.198 20.2727C42.1717 20.2239 42.1387 20.1737 42.117 20.1204C42.0859 20.0392 42.0657 19.9542 42.057 19.8677C42.0555 19.8504 42.0472 19.8332 42.0442 19.8159C41.8087 16.6802 40.086 13.5437 37.3012 11.3379C35.808 10.1574 35.487 10.5587 34.3822 8.95519C33.9292 8.29669 34.215 7.73869 34.761 7.94644C39.7545 9.85294 43.9837 15.9932 43.9822 21.3384C43.983 21.9227 43.3597 21.9887 42.9075 21.3332ZM5.99097 35.7677L5.71872 34.4252C5.70447 34.3547 5.67822 34.3074 5.65872 34.2497C5.64147 34.1852 5.62422 34.1162 5.59422 34.0517C5.55034 33.9545 5.49275 33.8641 5.42322 33.7832C5.41047 33.7674 5.40297 33.7464 5.39022 33.7284C2.84922 30.8739 1.55847 26.7242 1.97997 22.4334C2.20647 20.1264 2.83347 20.1872 2.36172 17.8644C2.16672 16.9149 1.43922 16.6952 1.16097 17.3477C-1.38828 23.3199 0.410973 32.2037 5.08722 36.7104C5.59797 37.2039 6.18222 36.7164 5.99097 35.7699" fill="#27AAE1"/>
<path d="M9.05248 33.5586C8.97673 33.1941 8.90173 32.8198 8.82898 32.4583C8.81473 32.3983 8.79748 32.3638 8.77873 32.3136C8.76298 32.2603 8.75023 32.2011 8.72698 32.1486C8.69035 32.0696 8.6429 31.9962 8.58598 31.9303C8.57473 31.9153 8.56873 31.8988 8.55898 31.8831C6.46573 29.5371 5.40598 26.1178 5.75173 22.5853C5.93998 20.6901 6.45148 20.7373 6.06448 18.8278C5.90623 18.0456 5.30548 17.8626 5.07598 18.4003C2.97898 23.3166 4.45948 30.6253 8.30698 34.3356C8.72923 34.7406 9.20998 34.3378 9.05248 33.5571" fill="#27AAE1"/>
</svg>
