<svg width="28" height="28" viewBox="0 0 28 28" fill="none" xmlns="http://www.w3.org/2000/svg">
<path fill-rule="evenodd" clip-rule="evenodd" d="M5.72647 11.914C5.72647 8.5632 8.44284 5.84683 11.7937 5.84683C15.1445 5.84683 17.8608 8.5632 17.8608 11.914C17.8608 15.2648 15.1445 17.9812 11.7937 17.9812C8.44284 17.9812 5.72647 15.2648 5.72647 11.914ZM11.7937 4.23145C7.55069 4.23145 4.11108 7.67105 4.11108 11.914C4.11108 16.157 7.55069 19.5966 11.7937 19.5966C13.6241 19.5966 15.305 18.9565 16.6247 17.8879L22.0256 23.2887C22.341 23.6041 22.8524 23.6041 23.1678 23.2887C23.4832 22.9733 23.4832 22.4619 23.1678 22.1465L17.767 16.7457C18.8359 15.4258 19.4762 13.7447 19.4762 11.914C19.4762 7.67105 16.0366 4.23145 11.7937 4.23145Z" fill="#121212"/>
</svg>
