<svg width="160" height="72" viewBox="0 0 160 72" fill="none" xmlns="http://www.w3.org/2000/svg">
<g clip-path="url(#clip0_45_7226)">
<g clip-path="url(#clip1_45_7226)">
<path d="M158.4 52.9932H1.6C0.716344 52.9932 0 53.709 0 54.592V55.642C0 56.525 0.716344 57.2408 1.6 57.2408H158.4C159.284 57.2408 160 56.525 160 55.642V54.592C160 53.709 159.284 52.9932 158.4 52.9932Z" fill="#32BFBF"/>
<g clip-path="url(#clip2_45_7226)">
<g clip-path="url(#clip3_45_7226)">
<path d="M37.1702 47.9899L35.1771 42.8436H19.7706L23.0294 33.5106H31.5546L18.9413 0.888672H34.2605L53.0422 47.9899H37.1702ZM24.2078 21.7208L15.5662 47.9899H0.406982L17.2392 3.02567L24.2078 21.7208ZM90.4455 47.9899L88.4524 42.8436H73.0314L76.3047 33.5106H84.8299L72.2167 0.888672H87.5214L106.318 47.9899H90.4455ZM77.4831 21.7208L68.8415 47.9899H53.6823L70.5146 3.02567L77.4831 21.7208ZM143.721 47.9899L141.728 42.8436H126.307L129.58 33.5106H138.105L125.492 0.888672H140.797L159.593 47.9899H143.721ZM130.744 21.7208L122.117 47.9899H106.958L123.79 3.02567L130.744 21.7208Z" fill="#32BFBF"/>
</g>
</g>
<g clip-path="url(#clip4_45_7226)">
<g clip-path="url(#clip5_45_7226)">
<path d="M32.1228 71.543H31.1759L34.7994 62.4974H36.0366L39.6601 71.543H38.7132C38.6038 71.543 38.5154 71.5152 38.4481 71.4597C38.3807 71.4059 38.3302 71.3369 38.2965 71.2528L35.6831 64.5034C35.6411 64.3856 35.5973 64.2569 35.5518 64.1173C35.5047 63.9794 35.4601 63.8263 35.418 63.6581C35.3675 63.8263 35.3212 63.9819 35.2791 64.1249C35.237 64.2679 35.195 64.3982 35.1529 64.516L32.5395 71.2528C32.5142 71.3285 32.4662 71.3958 32.3955 71.4547C32.3232 71.5136 32.2323 71.543 32.1228 71.543ZM32.7793 71.543H32.1102V70.7608H32.7793V71.543ZM37.64 68.8684H33.2339L33.5747 67.9853H37.2992L37.64 68.8684ZM38.7637 71.543H38.0945V70.7608H38.7637V71.543ZM32.0976 71.543H30.8098V71.0257C30.8098 70.9501 30.8266 70.8887 30.8603 70.8416C30.894 70.7961 30.9445 70.7692 31.0118 70.7608L31.9587 70.559L32.0976 71.543ZM33.4485 71.543H32.1607L32.2996 70.559L33.2465 70.7608C33.3138 70.7692 33.3643 70.7961 33.398 70.8416C33.4316 70.8887 33.4485 70.9501 33.4485 71.0257V71.543ZM38.6753 71.543H37.3875V71.0257C37.3875 70.9501 37.4044 70.8887 37.438 70.8416C37.4717 70.7961 37.5222 70.7692 37.5895 70.7608L38.5364 70.559L38.6753 71.543ZM40.0262 71.543H38.7384L38.8773 70.559L39.8242 70.7608C39.8915 70.7692 39.942 70.7961 39.9757 70.8416C40.0094 70.8887 40.0262 70.9501 40.0262 71.0257V71.543ZM42.7027 71.6439C42.3997 71.6439 42.0605 71.6103 41.6851 71.543C41.3114 71.4757 40.9899 71.3916 40.7206 71.2907V70.3571L41.2761 70.4833C41.3855 70.559 41.5597 70.6363 41.7988 70.7154C42.0395 70.7961 42.3198 70.8365 42.6396 70.8365C43.1194 70.8365 43.4729 70.7373 43.7001 70.5388C43.9274 70.342 44.041 70.1006 44.041 69.8146C44.041 69.5623 43.9653 69.3689 43.8138 69.2343C43.6623 69.0997 43.4602 68.9904 43.2077 68.9063C42.9552 68.8222 42.6817 68.7339 42.3871 68.6414C42.0841 68.5404 41.8064 68.4227 41.5538 68.2881C41.3013 68.1535 41.0993 67.9786 40.9478 67.7633C40.7963 67.5497 40.7206 67.2788 40.7206 66.9508C40.7206 66.5724 40.8191 66.2401 41.016 65.9542C41.2146 65.6682 41.484 65.4453 41.824 65.2855C42.1657 65.1257 42.5512 65.0458 42.9805 65.0458C43.2246 65.0458 43.4956 65.0753 43.7936 65.1341C44.0932 65.193 44.4198 65.2813 44.7733 65.3991V66.156L44.1041 66.0677C43.9274 66.0173 43.7481 65.9752 43.5663 65.9416C43.3862 65.9079 43.212 65.8911 43.0436 65.8911C42.7995 65.8911 42.5824 65.9289 42.3922 66.0046C42.2036 66.0803 42.0546 66.1855 41.9452 66.32C41.8358 66.4546 41.7811 66.6102 41.7811 66.7868C41.7811 67.0223 41.8712 67.209 42.0513 67.347C42.2331 67.4866 42.4544 67.5984 42.7154 67.6825C42.9763 67.7667 43.2246 67.8466 43.4602 67.9222C43.738 68.0064 44.0006 68.1157 44.2481 68.2503C44.4972 68.3848 44.7017 68.5615 44.8616 68.7801C45.0216 68.9988 45.1015 69.2848 45.1015 69.638C45.1015 70.0165 45.0022 70.3571 44.8036 70.6599C44.6066 70.9627 44.3289 71.2024 43.9703 71.379C43.6134 71.5556 43.1909 71.6439 42.7027 71.6439ZM44.0915 66.8373L43.9653 65.8911L44.7733 66.0551V67.0391H44.3566C44.2725 67.0391 44.2093 67.0206 44.1673 66.9836C44.1252 66.9449 44.0999 66.8962 44.0915 66.8373ZM41.4023 69.8272L41.5286 70.7734L40.7206 70.6094V69.6254H41.1372C41.2298 69.6254 41.2946 69.6439 41.3316 69.6809C41.3704 69.7196 41.3939 69.7684 41.4023 69.8272ZM47.9548 71.543H46.8312V62.2451H47.9548V67.7204H48.2452C48.3294 67.7204 48.4009 67.7078 48.4598 67.6825C48.5187 67.6573 48.5777 67.6111 48.6366 67.5438L50.6566 65.3738C50.7239 65.3066 50.7871 65.2519 50.846 65.2098C50.9049 65.1678 50.9891 65.1468 51.0985 65.1468H52.1211L49.7602 67.6573C49.7013 67.7162 49.6441 67.7751 49.5885 67.8339C49.5346 67.8928 49.4698 67.9433 49.3941 67.9853C49.5372 68.0863 49.6634 68.2208 49.7728 68.389L52.2726 71.543H51.2626C51.17 71.543 51.0943 71.5237 51.0354 71.485C50.9764 71.448 50.9133 71.3916 50.846 71.3159L48.7376 68.7044C48.6787 68.6119 48.6172 68.553 48.5532 68.5278C48.491 68.5026 48.3967 68.49 48.2704 68.49H47.9548V71.543ZM50.9975 66.1308L50.8207 66.1686L50.5556 65.7523V65.1468H52.0201L50.9975 66.1308ZM51.4015 70.559L51.2626 71.543L50.6566 70.395L51.4015 70.559ZM47.2099 71.543H45.9222V71.0257C45.9222 70.9501 45.939 70.8887 45.9727 70.8416C46.0063 70.7961 46.0568 70.7692 46.1242 70.7608L47.0711 70.559L47.2099 71.543ZM48.8638 71.543H47.5761L47.7149 70.559L48.6618 70.7608C48.7292 70.7692 48.7797 70.7961 48.8133 70.8416C48.847 70.8887 48.8638 70.9501 48.8638 71.0257V71.543ZM45.9222 62.2451H47.2099L47.0711 63.2292L46.1242 63.0273C46.0568 63.0105 46.0063 62.981 45.9727 62.939C45.939 62.8969 45.9222 62.8381 45.9222 62.7624V62.2451ZM50.8586 65.1468H52.1464V65.664C52.1464 65.7397 52.1295 65.7986 52.0959 65.8406C52.0622 65.8827 52.0117 65.9121 51.9444 65.9289L50.9975 66.1308L50.8586 65.1468ZM49.5582 65.1468H50.846L50.7071 66.1308L49.7602 65.9289C49.6929 65.9121 49.6424 65.8827 49.6087 65.8406C49.575 65.7986 49.5582 65.7397 49.5582 65.664V65.1468ZM52.5504 71.543H51.2626L51.4015 70.559L52.3484 70.7608C52.4157 70.7692 52.4662 70.7961 52.4999 70.8416C52.5335 70.8887 52.5504 70.9501 52.5504 71.0257V71.543ZM57.6863 71.543H56.7394L60.3628 62.4974H61.6001L65.2235 71.543H64.2767C64.1672 71.543 64.0789 71.5152 64.0115 71.4597C63.9442 71.4059 63.8937 71.3369 63.86 71.2528L61.2466 64.5034C61.2045 64.3856 61.1608 64.2569 61.1153 64.1173C61.0682 63.9794 61.0236 63.8263 60.9815 63.6581C60.931 63.8263 60.8847 63.9819 60.8426 64.1249C60.8005 64.2679 60.7584 64.3982 60.7164 64.516L58.1029 71.2528C58.0777 71.3285 58.0297 71.3958 57.959 71.4547C57.8866 71.5136 57.7957 71.543 57.6863 71.543ZM58.3428 71.543H57.6737V70.7608H58.3428V71.543ZM63.2035 68.8684H58.7973L59.1382 67.9853H62.8626L63.2035 68.8684ZM64.3272 71.543H63.658V70.7608H64.3272V71.543ZM57.6611 71.543H56.3733V71.0257C56.3733 70.9501 56.3901 70.8887 56.4238 70.8416C56.4575 70.7961 56.508 70.7692 56.5753 70.7608L57.5222 70.559L57.6611 71.543ZM59.012 71.543H57.7242L57.8631 70.559L58.8099 70.7608C58.8773 70.7692 58.9278 70.7961 58.9615 70.8416C58.9951 70.8887 59.012 70.9501 59.012 71.0257V71.543ZM64.2388 71.543H62.951V71.0257C62.951 70.9501 62.9678 70.8887 63.0015 70.8416C63.0352 70.7961 63.0857 70.7692 63.153 70.7608L64.0999 70.559L64.2388 71.543ZM65.5897 71.543H64.3019L64.4408 70.559L65.3877 70.7608C65.455 70.7692 65.5055 70.7961 65.5392 70.8416C65.5728 70.8887 65.5897 70.9501 65.5897 71.0257V71.543ZM68.14 71.543H67.0163V65.1468H67.6855C67.8538 65.1468 67.9548 65.2267 67.9885 65.3865L68.0768 66.0803C68.3546 65.7691 68.666 65.5185 69.0111 65.3284C69.3562 65.14 69.7518 65.0458 70.1979 65.0458C70.6692 65.0458 71.0623 65.1468 71.3771 65.3486C71.6935 65.5505 71.9334 65.8339 72.0967 66.1989C72.2617 66.5656 72.3441 66.9887 72.3441 67.4681V71.543H71.2205V67.4681C71.2205 66.9887 71.1086 66.6144 70.8847 66.3453C70.6625 66.0761 70.3241 65.9416 69.8696 65.9416C69.5414 65.9416 69.2316 66.0215 68.9404 66.1813C68.6509 66.3411 68.3841 66.5597 68.14 66.8373V71.543ZM67.3951 71.543H66.1073V71.0257C66.1073 70.9501 66.1241 70.8887 66.1578 70.8416C66.1915 70.7961 66.242 70.7692 66.3093 70.7608L67.2562 70.559L67.3951 71.543ZM69.049 71.543H67.7612L67.9001 70.559L68.847 70.7608C68.9143 70.7692 68.9648 70.7961 68.9985 70.8416C69.0321 70.8887 69.049 70.9501 69.049 71.0257V71.543ZM73.2532 71.543H71.9654L72.1043 70.559L73.0512 70.7608C73.1185 70.7692 73.169 70.7961 73.2027 70.8416C73.2363 70.8887 73.2532 70.9501 73.2532 71.0257V71.543ZM66.1073 65.1468H67.3951L67.2562 66.1308L66.3093 65.9289C66.242 65.9121 66.1915 65.8827 66.1578 65.8406C66.1241 65.7986 66.1073 65.7397 66.1073 65.664V65.1468ZM76.2706 71.6313C75.7487 71.6313 75.3069 71.4967 74.9449 71.2276C74.583 70.9585 74.3095 70.5775 74.1243 70.0846C73.9391 69.5934 73.8465 69.0198 73.8465 68.3638C73.8465 67.7414 73.956 67.1796 74.1748 66.6783C74.3936 66.1787 74.711 65.7792 75.1267 65.4798C75.5442 65.1821 76.0391 65.0332 76.6115 65.0332C77.007 65.0332 77.3437 65.1005 77.6215 65.2351C77.8992 65.3696 78.1475 65.5547 78.3664 65.7902V62.2451H79.49V71.543H78.8209C78.6525 71.543 78.5515 71.4631 78.5179 71.3033L78.4169 70.5337C78.1391 70.8617 77.8252 71.1267 77.475 71.3285C77.1266 71.5304 76.7251 71.6313 76.2706 71.6313ZM76.6367 70.723C77.007 70.723 77.3286 70.6389 77.6013 70.4707C77.8757 70.3024 78.1307 70.0627 78.3664 69.7515V66.6607C78.1559 66.3831 77.9287 66.1897 77.6846 66.0803C77.4405 65.971 77.167 65.9163 76.864 65.9163C76.4684 65.9163 76.1317 66.0105 75.8539 66.1989C75.5762 66.389 75.3658 66.6666 75.2227 67.0316C75.0796 67.3983 75.0081 67.8423 75.0081 68.3638C75.0081 69.1292 75.1385 69.7137 75.3994 70.1174C75.6604 70.5211 76.0728 70.723 76.6367 70.723ZM77.4573 62.2451H78.7451L78.6062 63.2292L77.6594 63.0273C77.592 63.0105 77.5415 62.981 77.5078 62.939C77.4742 62.8969 77.4573 62.8381 77.4573 62.7624V62.2451ZM80.399 71.543H79.1112L79.2501 70.559L80.197 70.7608C80.2643 70.7692 80.3148 70.7961 80.3485 70.8416C80.3822 70.8887 80.399 70.9501 80.399 71.0257V71.543ZM85.3834 71.543H84.4366L88.06 62.4974H89.2972L92.9207 71.543H91.9738C91.8644 71.543 91.776 71.5152 91.7087 71.4597C91.6413 71.4059 91.5908 71.3369 91.5572 71.2528L88.9437 64.5034C88.9017 64.3856 88.8579 64.2569 88.8124 64.1173C88.7653 63.9794 88.7207 63.8263 88.6786 63.6581C88.6281 63.8263 88.5818 63.9819 88.5397 64.1249C88.4977 64.2679 88.4556 64.3982 88.4135 64.516L85.8001 71.2528C85.7748 71.3285 85.7268 71.3958 85.6561 71.4547C85.5838 71.5136 85.4929 71.543 85.3834 71.543ZM86.04 71.543H85.3708V70.7608H86.04V71.543ZM90.9006 68.8684H86.4945L86.8353 67.9853H90.5598L90.9006 68.8684ZM92.0243 71.543H91.3551V70.7608H92.0243V71.543ZM85.3582 71.543H84.0704V71.0257C84.0704 70.9501 84.0873 70.8887 84.1209 70.8416C84.1546 70.7961 84.2051 70.7692 84.2724 70.7608L85.2193 70.559L85.3582 71.543ZM86.7091 71.543H85.4213L85.5602 70.559L86.5071 70.7608C86.5744 70.7692 86.6249 70.7961 86.6586 70.8416C86.6923 70.8887 86.7091 70.9501 86.7091 71.0257V71.543ZM91.9359 71.543H90.6481V71.0257C90.6481 70.9501 90.665 70.8887 90.6986 70.8416C90.7323 70.7961 90.7828 70.7692 90.8501 70.7608L91.797 70.559L91.9359 71.543ZM93.2868 71.543H91.999L92.1379 70.559L93.0848 70.7608C93.1521 70.7692 93.2026 70.7961 93.2363 70.8416C93.27 70.8887 93.2868 70.9501 93.2868 71.0257V71.543ZM95.8371 71.543H94.7134V65.1468H95.3826C95.5509 65.1468 95.6519 65.2267 95.6856 65.3865L95.774 66.0803C96.0517 65.7691 96.3631 65.5185 96.7082 65.3284C97.0533 65.14 97.4489 65.0458 97.895 65.0458C98.3663 65.0458 98.7594 65.1468 99.0742 65.3486C99.3907 65.5505 99.6305 65.8339 99.7938 66.1989C99.9588 66.5656 100.041 66.9887 100.041 67.4681V71.543H98.9176V67.4681C98.9176 66.9887 98.8057 66.6144 98.5818 66.3453C98.3596 66.0761 98.0212 65.9416 97.5667 65.9416C97.2385 65.9416 96.9288 66.0215 96.6375 66.1813C96.348 66.3411 96.0812 66.5597 95.8371 66.8373V71.543ZM95.0922 71.543H93.8044V71.0257C93.8044 70.9501 93.8213 70.8887 93.8549 70.8416C93.8886 70.7961 93.9391 70.7692 94.0064 70.7608L94.9533 70.559L95.0922 71.543ZM96.7461 71.543H95.4583L95.5972 70.559L96.5441 70.7608C96.6114 70.7692 96.6619 70.7961 96.6956 70.8416C96.7293 70.8887 96.7461 70.9501 96.7461 71.0257V71.543ZM100.95 71.543H99.6625L99.8014 70.559L100.748 70.7608C100.816 70.7692 100.866 70.7961 100.9 70.8416C100.933 70.8887 100.95 70.9501 100.95 71.0257V71.543ZM93.8044 65.1468H95.0922L94.9533 66.1308L94.0064 65.9289C93.9391 65.9121 93.8886 65.8827 93.8549 65.8406C93.8213 65.7986 93.8044 65.7397 93.8044 65.664V65.1468ZM103.627 71.6439C103.324 71.6439 102.985 71.6103 102.609 71.543C102.236 71.4757 101.914 71.3916 101.645 71.2907V70.3571L102.2 70.4833C102.31 70.559 102.484 70.6363 102.723 70.7154C102.964 70.7961 103.244 70.8365 103.564 70.8365C104.043 70.8365 104.397 70.7373 104.624 70.5388C104.851 70.342 104.965 70.1006 104.965 69.8146C104.965 69.5623 104.889 69.3689 104.738 69.2343C104.586 69.0997 104.384 68.9904 104.132 68.9063C103.879 68.8222 103.606 68.7339 103.311 68.6414C103.008 68.5404 102.73 68.4227 102.478 68.2881C102.225 68.1535 102.023 67.9786 101.872 67.7633C101.72 67.5497 101.645 67.2788 101.645 66.9508C101.645 66.5724 101.743 66.2401 101.94 65.9542C102.139 65.6682 102.408 65.4453 102.748 65.2855C103.09 65.1257 103.475 65.0458 103.905 65.0458C104.149 65.0458 104.42 65.0753 104.718 65.1341C105.017 65.193 105.344 65.2813 105.697 65.3991V66.156L105.028 66.0677C104.851 66.0173 104.672 65.9752 104.49 65.9416C104.31 65.9079 104.136 65.8911 103.968 65.8911C103.724 65.8911 103.506 65.9289 103.316 66.0046C103.128 66.0803 102.979 66.1855 102.869 66.32C102.76 66.4546 102.705 66.6102 102.705 66.7868C102.705 67.0223 102.795 67.209 102.975 67.347C103.157 67.4866 103.379 67.5984 103.639 67.6825C103.9 67.7667 104.149 67.8466 104.384 67.9222C104.662 68.0064 104.925 68.1157 105.172 68.2503C105.421 68.3848 105.626 68.5615 105.786 68.7801C105.946 68.9988 106.026 69.2848 106.026 69.638C106.026 70.0165 105.926 70.3571 105.728 70.6599C105.531 70.9627 105.253 71.2024 104.894 71.379C104.538 71.5556 104.115 71.6439 103.627 71.6439ZM105.016 66.8373L104.889 65.8911L105.697 66.0551V67.0391H105.281C105.197 67.0391 105.133 67.0206 105.091 66.9836C105.049 66.9449 105.024 66.8962 105.016 66.8373ZM102.326 69.8272L102.453 70.7734L101.645 70.6094V69.6254H102.061C102.154 69.6254 102.219 69.6439 102.256 69.6809C102.294 69.7196 102.318 69.7684 102.326 69.8272ZM110.177 71.543H109.331L107.26 65.1468H108.144C108.338 65.1468 108.456 65.2267 108.498 65.3865L109.722 69.4992C109.756 69.6506 109.788 69.7953 109.818 69.9332C109.847 70.0728 109.87 70.2141 109.886 70.3571C109.912 70.2562 109.937 70.1595 109.962 70.0669C109.987 69.9744 110.015 69.8819 110.045 69.7894C110.074 69.6969 110.105 69.6002 110.139 69.4992L111.49 65.3612C111.507 65.2939 111.543 65.2393 111.598 65.1972C111.652 65.1552 111.717 65.1341 111.793 65.1341H112.285C112.454 65.1341 112.559 65.2098 112.601 65.3612L113.926 69.4992C113.96 69.5917 113.99 69.6859 114.015 69.7818C114.04 69.8794 114.065 69.9744 114.091 70.0669C114.116 70.1595 114.137 70.2562 114.154 70.3571C114.171 70.2562 114.187 70.1569 114.204 70.0594C114.221 69.9635 114.242 69.8668 114.267 69.7692C114.293 69.6733 114.318 69.5833 114.343 69.4992L115.593 65.3865C115.61 65.3192 115.648 65.262 115.707 65.2149C115.766 65.1695 115.837 65.1468 115.921 65.1468H116.767L114.697 71.543H113.8C113.699 71.543 113.623 71.4715 113.573 71.3285L112.159 66.9887C112.125 66.8962 112.098 66.7994 112.078 66.6985C112.056 66.5976 112.037 66.5009 112.02 66.4083C112.003 66.484 111.985 66.5724 111.964 66.6733C111.943 66.7742 111.911 66.8835 111.869 67.0013L110.442 71.3285C110.391 71.4715 110.303 71.543 110.177 71.543ZM108.876 65.4622H107.929V65.1468H108.876V65.4622ZM116.3 65.4622H115.353V65.1468H116.3V65.4622ZM106.717 65.1468H108.005L107.866 66.1308L106.919 65.9289C106.852 65.9121 106.802 65.8827 106.768 65.8406C106.734 65.7986 106.717 65.7397 106.717 65.664V65.1468ZM108.296 65.1468H109.583V65.664C109.583 65.7397 109.567 65.7986 109.533 65.8406C109.499 65.8827 109.449 65.9121 109.381 65.9289L108.435 66.1308L108.296 65.1468ZM114.444 65.1468H115.732L115.593 66.1308L114.646 65.9289C114.579 65.9121 114.528 65.8827 114.495 65.8406C114.461 65.7986 114.444 65.7397 114.444 65.664V65.1468ZM116.022 65.1468H117.31V65.664C117.31 65.7397 117.293 65.7986 117.26 65.8406C117.226 65.8827 117.175 65.9121 117.108 65.9289L116.161 66.1308L116.022 65.1468ZM121.022 71.6313C120.407 71.6313 119.871 71.4925 119.413 71.215C118.954 70.9374 118.598 70.5421 118.345 70.0291C118.093 69.5161 117.967 68.9105 117.967 68.2124C117.967 67.6153 118.089 67.077 118.333 66.5976C118.577 66.1182 118.924 65.7397 119.375 65.4622C119.825 65.1846 120.353 65.0458 120.959 65.0458C121.489 65.0458 121.952 65.1636 122.347 65.3991C122.743 65.6346 123.053 65.9643 123.277 66.3882C123.499 66.8137 123.61 67.3209 123.61 67.9096C123.61 68.0863 123.591 68.204 123.554 68.2629C123.516 68.3218 123.442 68.3512 123.332 68.3512H119.078C119.078 68.3764 119.078 68.4033 119.078 68.4319C119.078 68.4622 119.078 68.49 119.078 68.5152C119.12 69.2217 119.317 69.7701 119.671 70.1603C120.024 70.5522 120.504 70.7482 121.11 70.7482C121.371 70.7482 121.63 70.6952 121.888 70.5892C122.144 70.4849 122.371 70.3823 122.57 70.2814C122.767 70.1805 122.907 70.13 122.991 70.13C123.084 70.13 123.155 70.1637 123.206 70.231L123.522 70.6473C123.353 70.8659 123.129 71.0485 122.847 71.1948C122.565 71.3428 122.263 71.4522 121.943 71.5228C121.624 71.5951 121.316 71.6313 121.022 71.6313ZM119.115 67.6447H122.6C122.6 67.1232 122.457 66.6985 122.171 66.3705C121.885 66.0425 121.489 65.8785 120.984 65.8785C120.437 65.8785 120.008 66.0341 119.696 66.3453C119.385 66.6565 119.191 67.0896 119.115 67.6447ZM126.425 71.543H125.302V65.1468H125.946C126.072 65.1468 126.16 65.1695 126.211 65.2149C126.261 65.262 126.291 65.3444 126.299 65.4622L126.375 66.4588C126.594 66.0131 126.863 65.664 127.183 65.4117C127.503 65.1594 127.881 65.0332 128.319 65.0332C128.496 65.0332 128.656 65.0542 128.799 65.0963C128.942 65.1384 129.072 65.193 129.19 65.2603L129.051 66.1056C129.043 66.156 129.019 66.1939 128.981 66.2191C128.944 66.2443 128.9 66.257 128.849 66.257C128.791 66.257 128.677 66.2376 128.509 66.1989C128.34 66.1619 128.193 66.1434 128.067 66.1434C127.679 66.1434 127.353 66.257 127.087 66.484C126.823 66.7111 126.602 67.0391 126.425 67.4681V71.543ZM127.334 71.543H126.047L126.186 70.559L127.132 70.7608C127.2 70.7692 127.25 70.7961 127.284 70.8416C127.318 70.8887 127.334 70.9501 127.334 71.0257V71.543ZM125.681 71.543H124.393V71.0257C124.393 70.9501 124.41 70.8887 124.443 70.8416C124.477 70.7961 124.527 70.7692 124.595 70.7608L125.542 70.559L125.681 71.543ZM124.393 65.1468H125.681L125.542 66.1308L124.595 65.9289C124.527 65.9121 124.477 65.8827 124.443 65.8406C124.41 65.7986 124.393 65.7397 124.393 65.664V65.1468Z" fill="#32BFBF"/>
</g>
</g>
</g>
</g>
<defs>
<clipPath id="clip0_45_7226">
<rect width="160" height="70.7552" fill="white" transform="translate(0 0.888672)"/>
</clipPath>
<clipPath id="clip1_45_7226">
<rect width="160" height="70.7552" fill="white" transform="translate(0 0.888672)"/>
</clipPath>
<clipPath id="clip2_45_7226">
<rect width="159.204" height="47.1012" fill="white" transform="translate(0.397949 0.888672)"/>
</clipPath>
<clipPath id="clip3_45_7226">
<rect width="159.204" height="47.1012" fill="white" transform="translate(0.397949 0.888672)"/>
</clipPath>
<clipPath id="clip4_45_7226">
<rect width="98.3881" height="9.39881" fill="white" transform="translate(30.8059 62.2451)"/>
</clipPath>
<clipPath id="clip5_45_7226">
<rect width="98.3881" height="9.39881" fill="white" transform="translate(30.8059 62.2451)"/>
</clipPath>
</defs>
</svg>
