<svg width="201" height="90" viewBox="0 0 201 90" fill="none" xmlns="http://www.w3.org/2000/svg">
<g clip-path="url(#clip0_35_7226)">
<g clip-path="url(#clip1_35_7226)">
<path d="M198.023 66.0273H2.00023C0.895535 66.0273 0 66.9222 0 68.0261V69.3387C0 70.4426 0.895535 71.3375 2.00023 71.3375H198.023C199.128 71.3375 200.023 70.4426 200.023 69.3387V68.0261C200.023 66.9222 199.128 66.0273 198.023 66.0273Z" fill="white"/>
<g clip-path="url(#clip2_35_7226)">
<g clip-path="url(#clip3_35_7226)">
<path d="M46.4681 59.772L43.9765 53.3385H24.7161L28.7901 41.6708H39.4478L23.6794 0.888672H42.8307L66.3105 59.772H46.4681ZM30.2632 26.9318L19.46 59.772H0.508789L21.5515 3.56023L30.2632 26.9318ZM113.07 59.772L110.578 53.3385H91.2999L95.392 41.6708H106.05L90.2814 0.888672H109.414L132.912 59.772H113.07ZM96.8652 26.9318L86.0619 59.772H67.1107L88.1535 3.56023L96.8652 26.9318ZM179.672 59.772L177.18 53.3385H157.902L161.994 41.6708H172.652L156.883 0.888672H176.016L199.514 59.772H179.672ZM163.449 26.9318L152.664 59.772H133.713L154.755 3.56023L163.449 26.9318Z" fill="white"/>
</g>
</g>
<g clip-path="url(#clip4_35_7226)">
<g clip-path="url(#clip5_35_7226)">
<path d="M40.1583 89.2165H38.9746L43.5044 77.9082H45.0511L49.581 89.2165H48.3972C48.2604 89.2165 48.1499 89.1818 48.0658 89.1124C47.9816 89.0451 47.9184 88.9589 47.8764 88.8537L44.6092 80.4159C44.5566 80.2687 44.5019 80.1078 44.4451 79.9333C44.3861 79.7608 44.3304 79.5695 44.2778 79.3592C44.2146 79.5695 44.1568 79.764 44.1041 79.9427C44.0515 80.1215 43.9989 80.2845 43.9463 80.4317L40.6792 88.8537C40.6476 88.9484 40.5876 89.0325 40.4992 89.1061C40.4087 89.1797 40.2951 89.2165 40.1583 89.2165ZM40.979 89.2165H40.1425V88.2386H40.979V89.2165ZM47.0556 85.8729H41.5472L41.9734 84.7689H46.6295L47.0556 85.8729ZM48.4603 89.2165H47.6238V88.2386H48.4603V89.2165ZM40.1267 89.2165H38.5168V88.5698C38.5168 88.4752 38.5379 88.3985 38.58 88.3396C38.6221 88.2828 38.6852 88.2492 38.7694 88.2386L39.9531 87.9863L40.1267 89.2165ZM41.8156 89.2165H40.2057L40.3793 87.9863L41.563 88.2386C41.6472 88.2492 41.7103 88.2828 41.7524 88.3396C41.7945 88.3985 41.8156 88.4752 41.8156 88.5698V89.2165ZM48.3499 89.2165H46.74V88.5698C46.74 88.4752 46.761 88.3985 46.8031 88.3396C46.8452 88.2828 46.9083 88.2492 46.9925 88.2386L48.1762 87.9863L48.3499 89.2165ZM50.0387 89.2165H48.4288L48.6024 87.9863L49.7861 88.2386C49.8703 88.2492 49.9334 88.2828 49.9755 88.3396C50.0176 88.3985 50.0387 88.4752 50.0387 88.5698V89.2165ZM53.3847 89.3427C53.0059 89.3427 52.5819 89.3006 52.1126 89.2165C51.6454 89.1324 51.2435 89.0272 50.9068 88.901V87.7339L51.6012 87.8917C51.738 87.9863 51.9558 88.083 52.2546 88.1819C52.5556 88.2828 52.906 88.3333 53.3058 88.3333C53.9056 88.3333 54.3475 88.2092 54.6316 87.9611C54.9157 87.715 55.0578 87.4133 55.0578 87.0558C55.0578 86.7403 54.9631 86.4985 54.7737 86.3303C54.5843 86.162 54.3317 86.0253 54.0161 85.9202C53.7004 85.8151 53.3584 85.7047 52.9901 85.589C52.6113 85.4628 52.2641 85.3156 51.9484 85.1474C51.6328 84.9792 51.3802 84.7605 51.1909 84.4913C51.0015 84.2242 50.9068 83.8857 50.9068 83.4756C50.9068 83.0024 51.0299 82.5871 51.2761 82.2296C51.5244 81.8721 51.8611 81.5935 52.2862 81.3937C52.7134 81.194 53.1953 81.0941 53.732 81.0941C54.0371 81.0941 54.3759 81.1309 54.7484 81.2045C55.123 81.2781 55.5313 81.3885 55.9732 81.5357V82.482L55.1367 82.3716C54.9157 82.3085 54.6916 82.2559 54.4643 82.2139C54.2391 82.1718 54.0213 82.1508 53.8109 82.1508C53.5057 82.1508 53.2343 82.1981 52.9965 82.2927C52.7608 82.3874 52.5745 82.5188 52.4377 82.687C52.3009 82.8552 52.2325 83.0498 52.2325 83.2706C52.2325 83.565 52.3451 83.7984 52.5703 83.9708C52.7976 84.1454 53.0743 84.2852 53.4005 84.3904C53.7267 84.4955 54.0371 84.5954 54.3317 84.69C54.679 84.7952 55.0073 84.9318 55.3166 85.1001C55.6281 85.2683 55.8838 85.4891 56.0837 85.7625C56.2836 86.0359 56.3836 86.3934 56.3836 86.835C56.3836 87.3081 56.2594 87.7339 56.0111 88.1125C55.7649 88.491 55.4176 88.7906 54.9694 89.0114C54.5232 89.2323 53.995 89.3427 53.3847 89.3427ZM55.1209 83.3337L54.9631 82.1508L55.9732 82.3558V83.586H55.4523C55.3471 83.586 55.2682 83.5629 55.2156 83.5166C55.163 83.4682 55.1314 83.4073 55.1209 83.3337ZM51.759 87.0715L51.9169 88.2544L50.9068 88.0494V86.8192H51.4276C51.5433 86.8192 51.6244 86.8423 51.6707 86.8886C51.7191 86.937 51.7485 86.9979 51.759 87.0715ZM59.9506 89.2165H58.5459V77.5928H59.9506V84.4377H60.3136C60.4188 84.4377 60.5083 84.4219 60.5819 84.3904C60.6556 84.3588 60.7292 84.301 60.8029 84.2169L63.3282 81.5041C63.4124 81.42 63.4913 81.3517 63.565 81.2991C63.6386 81.2465 63.7438 81.2203 63.8806 81.2203H65.1591L62.2076 84.3588C62.134 84.4324 62.0624 84.506 61.993 84.5796C61.9256 84.6532 61.8446 84.7163 61.7499 84.7689C61.9288 84.895 62.0866 85.0633 62.2234 85.2736L65.3485 89.2165H64.0858C63.9701 89.2165 63.8754 89.1923 63.8017 89.1439C63.7281 89.0977 63.6491 89.0272 63.565 88.9326L60.9292 85.6679C60.8555 85.5522 60.7787 85.4786 60.6987 85.4471C60.6209 85.4155 60.503 85.3997 60.3452 85.3997H59.9506V89.2165ZM63.7544 82.4504L63.5334 82.4978L63.202 81.9773V81.2203H65.0328L63.7544 82.4504ZM64.2594 87.9863L64.0858 89.2165L63.3282 87.7813L64.2594 87.9863ZM59.0194 89.2165H57.4095V88.5698C57.4095 88.4752 57.4305 88.3985 57.4726 88.3396C57.5147 88.2828 57.5778 88.2492 57.662 88.2386L58.8458 87.9863L59.0194 89.2165ZM61.087 89.2165H59.4771L59.6507 87.9863L60.8345 88.2386C60.9186 88.2492 60.9818 88.2828 61.0239 88.3396C61.0659 88.3985 61.087 88.4752 61.087 88.5698V89.2165ZM57.4095 77.5928H59.0194L58.8458 78.823L57.662 78.5706C57.5778 78.5496 57.5147 78.5128 57.4726 78.4602C57.4305 78.4076 57.4095 78.334 57.4095 78.2394V77.5928ZM63.5808 81.2203H65.1907V81.8669C65.1907 81.9615 65.1696 82.0351 65.1275 82.0877C65.0854 82.1403 65.0223 82.1771 64.9381 82.1981L63.7544 82.4504L63.5808 81.2203ZM61.9551 81.2203H63.565L63.3914 82.4504L62.2076 82.1981C62.1234 82.1771 62.0603 82.1403 62.0182 82.0877C61.9761 82.0351 61.9551 81.9615 61.9551 81.8669V81.2203ZM65.6957 89.2165H64.0858L64.2594 87.9863L65.4432 88.2386C65.5274 88.2492 65.5905 88.2828 65.6326 88.3396C65.6747 88.3985 65.6957 88.4752 65.6957 88.5698V89.2165ZM72.1164 89.2165H70.9326L75.4624 77.9082H77.0092L81.539 89.2165H80.3553C80.2185 89.2165 80.108 89.1818 80.0238 89.1124C79.9396 89.0451 79.8765 88.9589 79.8344 88.8537L76.5673 80.4159C76.5147 80.2687 76.4599 80.1078 76.4031 79.9333C76.3442 79.7608 76.2884 79.5695 76.2358 79.3592C76.1727 79.5695 76.1148 79.764 76.0622 79.9427C76.0096 80.1215 75.957 80.2845 75.9044 80.4317L72.6372 88.8537C72.6057 88.9484 72.5457 89.0325 72.4573 89.1061C72.3668 89.1797 72.2532 89.2165 72.1164 89.2165ZM72.9371 89.2165H72.1006V88.2386H72.9371V89.2165ZM79.0137 85.8729H73.5053L73.9315 84.7689H78.5875L79.0137 85.8729ZM80.4184 89.2165H79.5819V88.2386H80.4184V89.2165ZM72.0848 89.2165H70.4749V88.5698C70.4749 88.4752 70.496 88.3985 70.538 88.3396C70.5801 88.2828 70.6433 88.2492 70.7274 88.2386L71.9112 87.9863L72.0848 89.2165ZM73.7736 89.2165H72.1637L72.3373 87.9863L73.5211 88.2386C73.6053 88.2492 73.6684 88.2828 73.7105 88.3396C73.7526 88.3985 73.7736 88.4752 73.7736 88.5698V89.2165ZM80.3079 89.2165H78.698V88.5698C78.698 88.4752 78.7191 88.3985 78.7612 88.3396C78.8032 88.2828 78.8664 88.2492 78.9506 88.2386L80.1343 87.9863L80.3079 89.2165ZM81.9967 89.2165H80.3868L80.5605 87.9863L81.7442 88.2386C81.8284 88.2492 81.8915 88.2828 81.9336 88.3396C81.9757 88.3985 81.9967 88.4752 81.9967 88.5698V89.2165ZM85.185 89.2165H83.7802V81.2203H84.6168C84.8272 81.2203 84.9535 81.3201 84.9956 81.5199L85.1061 82.3874C85.4533 81.9983 85.8426 81.685 86.274 81.4474C86.7054 81.2118 87.2 81.0941 87.7576 81.0941C88.3469 81.0941 88.8383 81.2203 89.2318 81.4726C89.6274 81.7249 89.9273 82.0793 90.1315 82.5356C90.3377 82.994 90.4408 83.5229 90.4408 84.1222V89.2165H89.0361V84.1222C89.0361 83.5229 88.8961 83.055 88.6163 82.7186C88.3385 82.3821 87.9155 82.2139 87.3473 82.2139C86.9369 82.2139 86.5497 82.3138 86.1856 82.5135C85.8237 82.7133 85.4901 82.9867 85.185 83.3337V89.2165ZM84.2537 89.2165H82.6439V88.5698C82.6439 88.4752 82.6649 88.3985 82.707 88.3396C82.7491 88.2828 82.8122 88.2492 82.8964 88.2386L84.0801 87.9863L84.2537 89.2165ZM86.3214 89.2165H84.7115L84.8851 87.9863L86.0688 88.2386C86.153 88.2492 86.2161 88.2828 86.2582 88.3396C86.3003 88.3985 86.3214 88.4752 86.3214 88.5698V89.2165ZM91.5772 89.2165H89.9673L90.1409 87.9863L91.3247 88.2386C91.4089 88.2492 91.472 88.2828 91.5141 88.3396C91.5562 88.3985 91.5772 88.4752 91.5772 88.5698V89.2165ZM82.6439 81.2203H84.2537L84.0801 82.4504L82.8964 82.1981C82.8122 82.1771 82.7491 82.1403 82.707 82.0877C82.6649 82.0351 82.6439 81.9615 82.6439 81.8669V81.2203ZM95.3494 89.3269C94.697 89.3269 94.1446 89.1587 93.6922 88.8222C93.2397 88.4857 92.8977 88.0094 92.6663 87.3933C92.4348 86.7792 92.319 86.0621 92.319 85.242C92.319 84.464 92.4558 83.7616 92.7294 83.1349C93.003 82.5104 93.3997 82.0109 93.9195 81.6366C94.4414 81.2644 95.0601 81.0783 95.7756 81.0783C96.2701 81.0783 96.691 81.1624 97.0382 81.3307C97.3855 81.4989 97.6959 81.7302 97.9695 82.0246V77.5928H99.3742V89.2165H98.5377C98.3272 89.2165 98.2009 89.1166 98.1589 88.9168L98.0326 87.9547C97.6854 88.3648 97.2929 88.696 96.8552 88.9484C96.4195 89.2007 95.9176 89.3269 95.3494 89.3269ZM95.8071 88.1913C96.2701 88.1913 96.6721 88.0862 97.013 87.8759C97.356 87.6656 97.6748 87.3659 97.9695 86.9769V83.1129C97.7064 82.7659 97.4223 82.524 97.1172 82.3874C96.812 82.2507 96.47 82.1823 96.0912 82.1823C95.5967 82.1823 95.1758 82.3001 94.8286 82.5356C94.4813 82.7732 94.2183 83.1202 94.0394 83.5765C93.8605 84.035 93.7711 84.5901 93.7711 85.242C93.7711 86.1988 93.9342 86.9296 94.2604 87.4343C94.5866 87.939 95.1022 88.1913 95.8071 88.1913ZM96.8331 77.5928H98.443L98.2693 78.823L97.0856 78.5706C97.0014 78.5496 96.9383 78.5128 96.8962 78.4602C96.8541 78.4076 96.8331 78.334 96.8331 78.2394V77.5928ZM100.511 89.2165H98.9007L99.0743 87.9863L100.258 88.2386C100.342 88.2492 100.405 88.2828 100.447 88.3396C100.49 88.3985 100.511 88.4752 100.511 88.5698V89.2165ZM106.742 89.2165H105.558L110.088 77.9082H111.635L116.164 89.2165H114.981C114.844 89.2165 114.733 89.1818 114.649 89.1124C114.565 89.0451 114.502 88.9589 114.46 88.8537L111.193 80.4159C111.14 80.2687 111.085 80.1078 111.029 79.9333C110.97 79.7608 110.914 79.5695 110.861 79.3592C110.798 79.5695 110.74 79.764 110.688 79.9427C110.635 80.1215 110.582 80.2845 110.53 80.4317L107.263 88.8537C107.231 88.9484 107.171 89.0325 107.083 89.1061C106.992 89.1797 106.879 89.2165 106.742 89.2165ZM107.563 89.2165H106.726V88.2386H107.563V89.2165ZM113.639 85.8729H108.131L108.557 84.7689H113.213L113.639 85.8729ZM115.044 89.2165H114.207V88.2386H115.044V89.2165ZM106.71 89.2165H105.1V88.5698C105.1 88.4752 105.121 88.3985 105.163 88.3396C105.206 88.2828 105.269 88.2492 105.353 88.2386L106.537 87.9863L106.71 89.2165ZM108.399 89.2165H106.789L106.963 87.9863L108.147 88.2386C108.231 88.2492 108.294 88.2828 108.336 88.3396C108.378 88.3985 108.399 88.4752 108.399 88.5698V89.2165ZM114.933 89.2165H113.323V88.5698C113.323 88.4752 113.345 88.3985 113.387 88.3396C113.429 88.2828 113.492 88.2492 113.576 88.2386L114.76 87.9863L114.933 89.2165ZM116.622 89.2165H115.012L115.186 87.9863L116.37 88.2386C116.454 88.2492 116.517 88.2828 116.559 88.3396C116.601 88.3985 116.622 88.4752 116.622 88.5698V89.2165ZM119.81 89.2165H118.406V81.2203H119.242C119.453 81.2203 119.579 81.3201 119.621 81.5199L119.731 82.3874C120.079 81.9983 120.468 81.685 120.899 81.4474C121.331 81.2118 121.825 81.0941 122.383 81.0941C122.972 81.0941 123.464 81.2203 123.857 81.4726C124.253 81.7249 124.553 82.0793 124.757 82.5356C124.963 82.994 125.066 83.5229 125.066 84.1222V89.2165H123.662V84.1222C123.662 83.5229 123.522 83.055 123.242 82.7186C122.964 82.3821 122.541 82.2139 121.973 82.2139C121.562 82.2139 121.175 82.3138 120.811 82.5135C120.449 82.7133 120.116 82.9867 119.81 83.3337V89.2165ZM118.879 89.2165H117.269V88.5698C117.269 88.4752 117.29 88.3985 117.332 88.3396C117.375 88.2828 117.438 88.2492 117.522 88.2386L118.706 87.9863L118.879 89.2165ZM120.947 89.2165H119.337L119.511 87.9863L120.694 88.2386C120.778 88.2492 120.842 88.2828 120.884 88.3396C120.926 88.3985 120.947 88.4752 120.947 88.5698V89.2165ZM126.203 89.2165H124.593L124.766 87.9863L125.95 88.2386C126.034 88.2492 126.097 88.2828 126.14 88.3396C126.182 88.3985 126.203 88.4752 126.203 88.5698V89.2165ZM117.269 81.2203H118.879L118.706 82.4504L117.522 82.1981C117.438 82.1771 117.375 82.1403 117.332 82.0877C117.29 82.0351 117.269 81.9615 117.269 81.8669V81.2203ZM129.549 89.3427C129.17 89.3427 128.746 89.3006 128.277 89.2165C127.809 89.1324 127.407 89.0272 127.071 88.901V87.7339L127.765 87.8917C127.902 87.9863 128.12 88.083 128.419 88.1819C128.72 88.2828 129.07 88.3333 129.47 88.3333C130.07 88.3333 130.512 88.2092 130.796 87.9611C131.08 87.715 131.222 87.4133 131.222 87.0558C131.222 86.7403 131.127 86.4985 130.938 86.3303C130.748 86.162 130.496 86.0253 130.18 85.9202C129.864 85.8151 129.522 85.7047 129.154 85.589C128.775 85.4628 128.428 85.3156 128.112 85.1474C127.797 84.9792 127.544 84.7605 127.355 84.4913C127.165 84.2242 127.071 83.8857 127.071 83.4756C127.071 83.0024 127.194 82.5871 127.44 82.2296C127.688 81.8721 128.025 81.5935 128.45 81.3937C128.877 81.194 129.359 81.0941 129.896 81.0941C130.201 81.0941 130.54 81.1309 130.912 81.2045C131.287 81.2781 131.695 81.3885 132.137 81.5357V82.482L131.301 82.3716C131.08 82.3085 130.856 82.2559 130.628 82.2139C130.403 82.1718 130.185 82.1508 129.975 82.1508C129.67 82.1508 129.398 82.1981 129.16 82.2927C128.925 82.3874 128.739 82.5188 128.602 82.687C128.465 82.8552 128.397 83.0498 128.397 83.2706C128.397 83.565 128.509 83.7984 128.734 83.9708C128.962 84.1454 129.238 84.2852 129.564 84.3904C129.891 84.4955 130.201 84.5954 130.496 84.69C130.843 84.7952 131.171 84.9318 131.481 85.1001C131.792 85.2683 132.048 85.4891 132.248 85.7625C132.448 86.0359 132.548 86.3934 132.548 86.835C132.548 87.3081 132.423 87.7339 132.175 88.1125C131.929 88.491 131.582 88.7906 131.133 89.0114C130.687 89.2323 130.159 89.3427 129.549 89.3427ZM131.285 83.3337L131.127 82.1508L132.137 82.3558V83.586H131.616C131.511 83.586 131.432 83.5629 131.38 83.5166C131.327 83.4682 131.295 83.4073 131.285 83.3337ZM127.923 87.0715L128.081 88.2544L127.071 88.0494V86.8192H127.592C127.707 86.8192 127.788 86.8423 127.835 86.8886C127.883 86.937 127.913 86.9979 127.923 87.0715ZM137.737 89.2165H136.68L134.091 81.2203H135.196C135.438 81.2203 135.585 81.3201 135.638 81.5199L137.169 86.6615C137.211 86.8507 137.251 87.0316 137.289 87.204C137.325 87.3786 137.353 87.5552 137.374 87.7339C137.406 87.6078 137.437 87.4869 137.469 87.3712C137.5 87.2555 137.535 87.1399 137.573 87.0242C137.609 86.9086 137.648 86.7876 137.69 86.6615L139.379 81.4884C139.4 81.4043 139.445 81.3359 139.514 81.2833C139.582 81.2308 139.663 81.2045 139.757 81.2045H140.373C140.583 81.2045 140.715 81.2991 140.768 81.4884L142.425 86.6615C142.467 86.7771 142.504 86.8949 142.535 87.0148C142.567 87.1367 142.598 87.2555 142.63 87.3712C142.661 87.4869 142.688 87.6078 142.709 87.7339C142.73 87.6078 142.751 87.4837 142.772 87.3617C142.793 87.2419 142.819 87.121 142.851 86.999C142.882 86.8791 142.914 86.7666 142.946 86.6615L144.508 81.5199C144.529 81.4358 144.577 81.3643 144.65 81.3054C144.724 81.2486 144.813 81.2203 144.919 81.2203H145.976L143.388 89.2165H142.267C142.141 89.2165 142.046 89.1271 141.983 88.9484L140.215 83.5229C140.173 83.4073 140.139 83.2863 140.114 83.1602C140.087 83.034 140.063 82.9131 140.041 82.7974C140.02 82.892 139.997 83.0024 139.972 83.1286C139.945 83.2548 139.905 83.3915 139.852 83.5387L138.069 88.9484C138.005 89.1271 137.895 89.2165 137.737 89.2165ZM136.111 81.6145H134.928V81.2203H136.111V81.6145ZM145.392 81.6145H144.208V81.2203H145.392V81.6145ZM133.412 81.2203H135.022L134.849 82.4504L133.665 82.1981C133.581 82.1771 133.518 82.1403 133.476 82.0877C133.434 82.0351 133.412 81.9615 133.412 81.8669V81.2203ZM135.385 81.2203H136.995V81.8669C136.995 81.9615 136.974 82.0351 136.932 82.0877C136.89 82.1403 136.827 82.1771 136.743 82.1981L135.559 82.4504L135.385 81.2203ZM143.072 81.2203H144.682L144.508 82.4504L143.324 82.1981C143.24 82.1771 143.177 82.1403 143.135 82.0877C143.093 82.0351 143.072 81.9615 143.072 81.8669V81.2203ZM145.045 81.2203H146.655V81.8669C146.655 81.9615 146.634 82.0351 146.592 82.0877C146.549 82.1403 146.486 82.1771 146.402 82.1981L145.218 82.4504L145.045 81.2203ZM151.295 89.3269C150.527 89.3269 149.857 89.1534 149.284 88.8064C148.71 88.4594 148.265 87.9653 147.949 87.3239C147.633 86.6825 147.475 85.9255 147.475 85.0528C147.475 84.3062 147.628 83.6333 147.933 83.034C148.238 82.4347 148.673 81.9615 149.237 81.6145C149.799 81.2676 150.458 81.0941 151.216 81.0941C151.879 81.0941 152.458 81.2413 152.952 81.5357C153.447 81.8301 153.834 82.2423 154.114 82.7722C154.392 83.3042 154.531 83.9382 154.531 84.6742C154.531 84.895 154.507 85.0422 154.461 85.1159C154.413 85.1895 154.32 85.2263 154.183 85.2263H148.864C148.864 85.2578 148.864 85.2914 148.864 85.3272C148.864 85.365 148.864 85.3997 148.864 85.4313C148.917 86.3145 149.164 87 149.606 87.4879C150.048 87.9779 150.648 88.2229 151.405 88.2229C151.732 88.2229 152.056 88.1566 152.378 88.0241C152.698 87.8938 152.982 87.7655 153.23 87.6393C153.476 87.5131 153.652 87.4501 153.757 87.4501C153.873 87.4501 153.962 87.4921 154.025 87.5762L154.42 88.0967C154.21 88.3701 153.929 88.5982 153.577 88.7812C153.224 88.9662 152.847 89.1029 152.447 89.1912C152.047 89.2817 151.663 89.3269 151.295 89.3269ZM148.912 84.343H153.268C153.268 83.6911 153.089 83.1602 152.731 82.7501C152.374 82.34 151.879 82.135 151.248 82.135C150.564 82.135 150.027 82.3295 149.638 82.7186C149.248 83.1076 149.006 83.6491 148.912 84.343ZM158.05 89.2165H156.646V81.2203H157.45C157.608 81.2203 157.719 81.2486 157.782 81.3054C157.845 81.3643 157.882 81.4673 157.892 81.6145L157.987 82.8605C158.261 82.3032 158.597 81.8669 158.997 81.5515C159.397 81.236 159.871 81.0783 160.418 81.0783C160.639 81.0783 160.839 81.1046 161.017 81.1572C161.196 81.2097 161.359 81.2781 161.507 81.3622L161.333 82.4189C161.323 82.482 161.293 82.5293 161.245 82.5608C161.198 82.5924 161.144 82.6082 161.081 82.6082C161.007 82.6082 160.865 82.584 160.654 82.5356C160.444 82.4893 160.26 82.4662 160.102 82.4662C159.618 82.4662 159.21 82.6082 158.877 82.892C158.547 83.1759 158.271 83.586 158.05 84.1222V89.2165ZM159.187 89.2165H157.577L157.75 87.9863L158.934 88.2386C159.018 88.2492 159.081 88.2828 159.124 88.3396C159.166 88.3985 159.187 88.4752 159.187 88.5698V89.2165ZM157.119 89.2165H155.509V88.5698C155.509 88.4752 155.53 88.3985 155.572 88.3396C155.614 88.2828 155.677 88.2492 155.762 88.2386L156.945 87.9863L157.119 89.2165ZM155.509 81.2203H157.119L156.945 82.4504L155.762 82.1981C155.677 82.1771 155.614 82.1403 155.572 82.0877C155.53 82.0351 155.509 81.9615 155.509 81.8669V81.2203Z" fill="white"/>
</g>
</g>
</g>
</g>
<defs>
<clipPath id="clip0_35_7226">
<rect width="200.023" height="88.4542" fill="white" transform="translate(0 0.888672)"/>
</clipPath>
<clipPath id="clip1_35_7226">
<rect width="200.023" height="88.4542" fill="white" transform="translate(0 0.888672)"/>
</clipPath>
<clipPath id="clip2_35_7226">
<rect width="199.028" height="58.8833" fill="white" transform="translate(0.497559 0.888672)"/>
</clipPath>
<clipPath id="clip3_35_7226">
<rect width="199.028" height="58.8833" fill="white" transform="translate(0.497559 0.888672)"/>
</clipPath>
<clipPath id="clip4_35_7226">
<rect width="122.999" height="11.7499" fill="white" transform="translate(38.512 77.5928)"/>
</clipPath>
<clipPath id="clip5_35_7226">
<rect width="122.999" height="11.7499" fill="white" transform="translate(38.512 77.5928)"/>
</clipPath>
</defs>
</svg>
