<svg width="339" height="112" viewBox="0 0 339 112" fill="none" xmlns="http://www.w3.org/2000/svg">
<g clip-path="url(#clip0_35_7242)">
<g clip-path="url(#clip1_35_7242)">
<g clip-path="url(#clip2_35_7242)">
<g clip-path="url(#clip3_35_7242)">
<g clip-path="url(#clip4_35_7242)">
<path d="M198.374 77.0273H2.35082C1.24612 77.0273 0.350586 77.9222 0.350586 79.0261V80.3387C0.350586 81.4426 1.24612 82.3375 2.35082 82.3375H198.374C199.478 82.3375 200.374 81.4426 200.374 80.3387V79.0261C200.374 77.9222 199.478 77.0273 198.374 77.0273Z" fill="white"/>
<g clip-path="url(#clip5_35_7242)">
<g clip-path="url(#clip6_35_7242)">
<path d="M46.8187 70.772L44.3271 64.3385H25.0667L29.1407 52.6708H39.7984L24.03 11.8887H43.1813L66.6611 70.772H46.8187ZM30.6138 37.9318L19.8106 70.772H0.859375L21.9021 14.5602L30.6138 37.9318ZM113.421 70.772L110.929 64.3385H91.6505L95.7426 52.6708H106.4L90.632 11.8887H109.765L133.263 70.772H113.421ZM97.2158 37.9318L86.4125 70.772H67.4613L88.504 14.5602L97.2158 37.9318ZM180.023 70.772L177.531 64.3385H158.252L162.345 52.6708H173.002L157.234 11.8887H176.367L199.865 70.772H180.023ZM163.8 37.9318L153.014 70.772H134.063L155.106 14.5602L163.8 37.9318Z" fill="white"/>
</g>
</g>
<g clip-path="url(#clip7_35_7242)">
<g clip-path="url(#clip8_35_7242)">
<path d="M40.5089 100.216H39.3251L43.855 88.9082H45.4017L49.9315 100.216H48.7478C48.611 100.216 48.5005 100.182 48.4163 100.112C48.3322 100.045 48.269 99.9589 48.2269 99.8537L44.9598 91.4159C44.9072 91.2687 44.8525 91.1078 44.7956 90.9333C44.7367 90.7608 44.681 90.5695 44.6283 90.3592C44.5652 90.5695 44.5073 90.764 44.4547 90.9427C44.4021 91.1215 44.3495 91.2845 44.2969 91.4317L41.0297 99.8537C40.9982 99.9484 40.9382 100.032 40.8498 100.106C40.7593 100.18 40.6457 100.216 40.5089 100.216ZM41.3296 100.216H40.4931V99.2386H41.3296V100.216ZM47.4062 96.8729H41.8978L42.324 95.7689H46.9801L47.4062 96.8729ZM48.8109 100.216H47.9744V99.2386H48.8109V100.216ZM40.4773 100.216H38.8674V99.5698C38.8674 99.4752 38.8885 99.3985 38.9306 99.3396C38.9727 99.2828 39.0358 99.2492 39.12 99.2386L40.3037 98.9863L40.4773 100.216ZM42.1661 100.216H40.5562L40.7299 98.9863L41.9136 99.2386C41.9978 99.2492 42.0609 99.2828 42.103 99.3396C42.1451 99.3985 42.1661 99.4752 42.1661 99.5698V100.216ZM48.7004 100.216H47.0905V99.5698C47.0905 99.4752 47.1116 99.3985 47.1537 99.3396C47.1958 99.2828 47.2589 99.2492 47.3431 99.2386L48.5268 98.9863L48.7004 100.216ZM50.3893 100.216H48.7794L48.953 98.9863L50.1367 99.2386C50.2209 99.2492 50.284 99.2828 50.3261 99.3396C50.3682 99.3985 50.3893 99.4752 50.3893 99.5698V100.216ZM53.7353 100.343C53.3565 100.343 52.9325 100.301 52.4632 100.216C51.996 100.132 51.594 100.027 51.2573 99.901V98.7339L51.9518 98.8917C52.0886 98.9863 52.3064 99.083 52.6052 99.1819C52.9062 99.2828 53.2566 99.3333 53.6564 99.3333C54.2562 99.3333 54.6981 99.2092 54.9822 98.9611C55.2663 98.715 55.4083 98.4133 55.4083 98.0558C55.4083 97.7403 55.3136 97.4985 55.1243 97.3303C54.9349 97.162 54.6823 97.0253 54.3667 96.9202C54.051 96.8151 53.709 96.7047 53.3407 96.589C52.9619 96.4628 52.6147 96.3156 52.299 96.1474C51.9834 95.9792 51.7308 95.7605 51.5414 95.4913C51.352 95.2242 51.2573 94.8857 51.2573 94.4756C51.2573 94.0024 51.3804 93.5871 51.6267 93.2296C51.875 92.8721 52.2117 92.5935 52.6368 92.3937C53.064 92.194 53.5459 92.0941 54.0826 92.0941C54.3877 92.0941 54.7265 92.1309 55.099 92.2045C55.4736 92.2781 55.8818 92.3885 56.3238 92.5357V93.482L55.4873 93.3716C55.2663 93.3085 55.0422 93.2559 54.8149 93.2139C54.5897 93.1718 54.3719 93.1508 54.1615 93.1508C53.8563 93.1508 53.5849 93.1981 53.347 93.2927C53.1114 93.3874 52.9251 93.5188 52.7883 93.687C52.6515 93.8552 52.5831 94.0498 52.5831 94.2706C52.5831 94.565 52.6957 94.7984 52.9209 94.9708C53.1482 95.1454 53.4249 95.2852 53.7511 95.3904C54.0773 95.4955 54.3877 95.5954 54.6823 95.69C55.0295 95.7952 55.3578 95.9318 55.6672 96.1001C55.9787 96.2683 56.2343 96.4891 56.4343 96.7625C56.6342 97.0359 56.7341 97.3934 56.7341 97.835C56.7341 98.3081 56.61 98.7339 56.3617 99.1125C56.1154 99.491 55.7682 99.7906 55.32 100.011C54.8738 100.232 54.3456 100.343 53.7353 100.343ZM55.4715 94.3337L55.3136 93.1508L56.3238 93.3558V94.586H55.8029C55.6977 94.586 55.6188 94.5629 55.5662 94.5166C55.5136 94.4682 55.482 94.4073 55.4715 94.3337ZM52.1096 98.0715L52.2675 99.2544L51.2573 99.0494V97.8192H51.7782C51.8939 97.8192 51.975 97.8423 52.0212 97.8886C52.0697 97.937 52.0991 97.9979 52.1096 98.0715ZM60.3012 100.216H58.8965V88.5928H60.3012V95.4377H60.6642C60.7694 95.4377 60.8589 95.4219 60.9325 95.3904C61.0062 95.3588 61.0798 95.301 61.1535 95.2169L63.6788 92.5041C63.763 92.42 63.8419 92.3517 63.9156 92.2991C63.9892 92.2465 64.0944 92.2203 64.2312 92.2203H65.5097L62.5582 95.3588C62.4845 95.4324 62.413 95.506 62.3435 95.5796C62.2762 95.6532 62.1952 95.7163 62.1005 95.7689C62.2794 95.895 62.4372 96.0633 62.574 96.2736L65.6991 100.216H64.4364C64.3207 100.216 64.226 100.192 64.1523 100.144C64.0787 100.098 63.9997 100.027 63.9156 99.9326L61.2797 96.6679C61.2061 96.5522 61.1293 96.4786 61.0493 96.4471C60.9714 96.4155 60.8536 96.3997 60.6958 96.3997H60.3012V100.216ZM64.105 93.4504L63.884 93.4978L63.5525 92.9773V92.2203H65.3834L64.105 93.4504ZM64.61 98.9863L64.4364 100.216L63.6788 98.7813L64.61 98.9863ZM59.37 100.216H57.7601V99.5698C57.7601 99.4752 57.7811 99.3985 57.8232 99.3396C57.8653 99.2828 57.9284 99.2492 58.0126 99.2386L59.1963 98.9863L59.37 100.216ZM61.4376 100.216H59.8277L60.0013 98.9863L61.185 99.2386C61.2692 99.2492 61.3324 99.2828 61.3744 99.3396C61.4165 99.3985 61.4376 99.4752 61.4376 99.5698V100.216ZM57.7601 88.5928H59.37L59.1963 89.823L58.0126 89.5706C57.9284 89.5496 57.8653 89.5128 57.8232 89.4602C57.7811 89.4076 57.7601 89.334 57.7601 89.2394V88.5928ZM63.9313 92.2203H65.5412V92.8669C65.5412 92.9615 65.5202 93.0351 65.4781 93.0877C65.436 93.1403 65.3729 93.1771 65.2887 93.1981L64.105 93.4504L63.9313 92.2203ZM62.3057 92.2203H63.9156L63.7419 93.4504L62.5582 93.1981C62.474 93.1771 62.4109 93.1403 62.3688 93.0877C62.3267 93.0351 62.3057 92.9615 62.3057 92.8669V92.2203ZM66.0463 100.216H64.4364L64.61 98.9863L65.7938 99.2386C65.8779 99.2492 65.9411 99.2828 65.9832 99.3396C66.0253 99.3985 66.0463 99.4752 66.0463 99.5698V100.216ZM72.467 100.216H71.2832L75.813 88.9082H77.3598L81.8896 100.216H80.7059C80.5691 100.216 80.4586 100.182 80.3744 100.112C80.2902 100.045 80.2271 99.9589 80.185 99.8537L76.9179 91.4159C76.8652 91.2687 76.8105 91.1078 76.7537 90.9333C76.6948 90.7608 76.639 90.5695 76.5864 90.3592C76.5233 90.5695 76.4654 90.764 76.4128 90.9427C76.3602 91.1215 76.3076 91.2845 76.255 91.4317L72.9878 99.8537C72.9562 99.9484 72.8963 100.032 72.8079 100.106C72.7174 100.18 72.6037 100.216 72.467 100.216ZM73.2877 100.216H72.4512V99.2386H73.2877V100.216ZM79.3643 96.8729H73.8559L74.282 95.7689H78.9381L79.3643 96.8729ZM80.769 100.216H79.9325V99.2386H80.769V100.216ZM72.4354 100.216H70.8255V99.5698C70.8255 99.4752 70.8465 99.3985 70.8886 99.3396C70.9307 99.2828 70.9939 99.2492 71.078 99.2386L72.2618 98.9863L72.4354 100.216ZM74.1242 100.216H72.5143L72.6879 98.9863L73.8717 99.2386C73.9559 99.2492 74.019 99.2828 74.0611 99.3396C74.1032 99.3985 74.1242 99.4752 74.1242 99.5698V100.216ZM80.6585 100.216H79.0486V99.5698C79.0486 99.4752 79.0696 99.3985 79.1117 99.3396C79.1538 99.2828 79.217 99.2492 79.3011 99.2386L80.4849 98.9863L80.6585 100.216ZM82.3473 100.216H80.7374L80.911 98.9863L82.0948 99.2386C82.179 99.2492 82.2421 99.2828 82.2842 99.3396C82.3263 99.3985 82.3473 99.4752 82.3473 99.5698V100.216ZM85.5356 100.216H84.1308V92.2203H84.9674C85.1778 92.2203 85.3041 92.3201 85.3462 92.5199L85.4566 93.3874C85.8039 92.9983 86.1932 92.685 86.6246 92.4474C87.056 92.2118 87.5506 92.0941 88.1082 92.0941C88.6975 92.0941 89.1889 92.2203 89.5824 92.4726C89.978 92.7249 90.2779 93.0793 90.482 93.5356C90.6883 93.994 90.7914 94.5229 90.7914 95.1222V100.216H89.3867V95.1222C89.3867 94.5229 89.2467 94.055 88.9668 93.7186C88.6891 93.3821 88.2661 93.2139 87.6979 93.2139C87.2875 93.2139 86.9003 93.3138 86.5362 93.5135C86.1743 93.7133 85.8407 93.9867 85.5356 94.3337V100.216ZM84.6043 100.216H82.9944V99.5698C82.9944 99.4752 83.0155 99.3985 83.0576 99.3396C83.0997 99.2828 83.1628 99.2492 83.247 99.2386L84.4307 98.9863L84.6043 100.216ZM86.6719 100.216H85.0621L85.2357 98.9863L86.4194 99.2386C86.5036 99.2492 86.5667 99.2828 86.6088 99.3396C86.6509 99.3985 86.6719 99.4752 86.6719 99.5698V100.216ZM91.9278 100.216H90.3179L90.4915 98.9863L91.6753 99.2386C91.7594 99.2492 91.8226 99.2828 91.8647 99.3396C91.9067 99.3985 91.9278 99.4752 91.9278 99.5698V100.216ZM82.9944 92.2203H84.6043L84.4307 93.4504L83.247 93.1981C83.1628 93.1771 83.0997 93.1403 83.0576 93.0877C83.0155 93.0351 82.9944 92.9615 82.9944 92.8669V92.2203ZM95.7 100.327C95.0476 100.327 94.4952 100.159 94.0428 99.8222C93.5903 99.4857 93.2483 99.0094 93.0168 98.3933C92.7854 97.7792 92.6696 97.0621 92.6696 96.242C92.6696 95.464 92.8064 94.7616 93.08 94.1349C93.3536 93.5104 93.7502 93.0109 94.27 92.6366C94.7919 92.2644 95.4106 92.0783 96.1262 92.0783C96.6207 92.0783 97.0416 92.1624 97.3888 92.3307C97.7361 92.4989 98.0465 92.7302 98.32 93.0246V88.5928H99.7248V100.216H98.8882C98.6778 100.216 98.5515 100.117 98.5094 99.9168L98.3832 98.9547C98.0359 99.3648 97.6435 99.696 97.2057 99.9484C96.7701 100.201 96.2682 100.327 95.7 100.327ZM96.1577 99.1913C96.6207 99.1913 97.0227 99.0862 97.3636 98.8759C97.7066 98.6656 98.0254 98.3659 98.32 97.9769V94.1129C98.057 93.7659 97.7729 93.524 97.4677 93.3874C97.1626 93.2507 96.8206 93.1823 96.4418 93.1823C95.9473 93.1823 95.5264 93.3001 95.1792 93.5356C94.8319 93.7732 94.5689 94.1202 94.39 94.5765C94.2111 95.035 94.1217 95.5901 94.1217 96.242C94.1217 97.1988 94.2848 97.9296 94.611 98.4343C94.9371 98.939 95.4527 99.1913 96.1577 99.1913ZM97.1836 88.5928H98.7935L98.6199 89.823L97.4362 89.5706C97.352 89.5496 97.2889 89.5128 97.2468 89.4602C97.2047 89.4076 97.1836 89.334 97.1836 89.2394V88.5928ZM100.861 100.216H99.2513L99.4249 98.9863L100.609 99.2386C100.693 99.2492 100.756 99.2828 100.798 99.3396C100.84 99.3985 100.861 99.4752 100.861 99.5698V100.216ZM107.092 100.216H105.909L110.438 88.9082H111.985L116.515 100.216H115.331C115.195 100.216 115.084 100.182 115 100.112C114.916 100.045 114.853 99.9589 114.81 99.8537L111.543 91.4159C111.491 91.2687 111.436 91.1078 111.379 90.9333C111.32 90.7608 111.264 90.5695 111.212 90.3592C111.149 90.5695 111.091 90.764 111.038 90.9427C110.986 91.1215 110.933 91.2845 110.88 91.4317L107.613 99.8537C107.582 99.9484 107.522 100.032 107.433 100.106C107.343 100.18 107.229 100.216 107.092 100.216ZM107.913 100.216H107.077V99.2386H107.913V100.216ZM113.99 96.8729H108.481L108.907 95.7689H113.564L113.99 96.8729ZM115.394 100.216H114.558V99.2386H115.394V100.216ZM107.061 100.216H105.451V99.5698C105.451 99.4752 105.472 99.3985 105.514 99.3396C105.556 99.2828 105.619 99.2492 105.703 99.2386L106.887 98.9863L107.061 100.216ZM108.75 100.216H107.14L107.313 98.9863L108.497 99.2386C108.581 99.2492 108.644 99.2828 108.687 99.3396C108.729 99.3985 108.75 99.4752 108.75 99.5698V100.216ZM115.284 100.216H113.674V99.5698C113.674 99.4752 113.695 99.3985 113.737 99.3396C113.779 99.2828 113.842 99.2492 113.927 99.2386L115.11 98.9863L115.284 100.216ZM116.973 100.216H115.363L115.536 98.9863L116.72 99.2386C116.804 99.2492 116.868 99.2828 116.91 99.3396C116.952 99.3985 116.973 99.4752 116.973 99.5698V100.216ZM120.161 100.216H118.756V92.2203H119.593C119.803 92.2203 119.93 92.3201 119.972 92.5199L120.082 93.3874C120.429 92.9983 120.819 92.685 121.25 92.4474C121.681 92.2118 122.176 92.0941 122.734 92.0941C123.323 92.0941 123.814 92.2203 124.208 92.4726C124.603 92.7249 124.903 93.0793 125.107 93.5356C125.314 93.994 125.417 94.5229 125.417 95.1222V100.216H124.012V95.1222C124.012 94.5229 123.872 94.055 123.592 93.7186C123.314 93.3821 122.892 93.2139 122.323 93.2139C121.913 93.2139 121.526 93.3138 121.162 93.5135C120.8 93.7133 120.466 93.9867 120.161 94.3337V100.216ZM119.23 100.216H117.62V99.5698C117.62 99.4752 117.641 99.3985 117.683 99.3396C117.725 99.2828 117.788 99.2492 117.872 99.2386L119.056 98.9863L119.23 100.216ZM121.297 100.216H119.687L119.861 98.9863L121.045 99.2386C121.129 99.2492 121.192 99.2828 121.234 99.3396C121.276 99.3985 121.297 99.4752 121.297 99.5698V100.216ZM126.553 100.216H124.943L125.117 98.9863L126.301 99.2386C126.385 99.2492 126.448 99.2828 126.49 99.3396C126.532 99.3985 126.553 99.4752 126.553 99.5698V100.216ZM117.62 92.2203H119.23L119.056 93.4504L117.872 93.1981C117.788 93.1771 117.725 93.1403 117.683 93.0877C117.641 93.0351 117.62 92.9615 117.62 92.8669V92.2203ZM129.899 100.343C129.521 100.343 129.096 100.301 128.627 100.216C128.16 100.132 127.758 100.027 127.421 99.901V98.7339L128.116 98.8917C128.253 98.9863 128.47 99.083 128.769 99.1819C129.07 99.2828 129.421 99.3333 129.82 99.3333C130.42 99.3333 130.862 99.2092 131.146 98.9611C131.43 98.715 131.572 98.4133 131.572 98.0558C131.572 97.7403 131.478 97.4985 131.288 97.3303C131.099 97.162 130.846 97.0253 130.531 96.9202C130.215 96.8151 129.873 96.7047 129.505 96.589C129.126 96.4628 128.779 96.3156 128.463 96.1474C128.147 95.9792 127.895 95.7605 127.705 95.4913C127.516 95.2242 127.421 94.8857 127.421 94.4756C127.421 94.0024 127.544 93.5871 127.791 93.2296C128.039 92.8721 128.376 92.5935 128.801 92.3937C129.228 92.194 129.71 92.0941 130.247 92.0941C130.552 92.0941 130.89 92.1309 131.263 92.2045C131.638 92.2781 132.046 92.3885 132.488 92.5357V93.482L131.651 93.3716C131.43 93.3085 131.206 93.2559 130.979 93.2139C130.754 93.1718 130.536 93.1508 130.325 93.1508C130.02 93.1508 129.749 93.1981 129.511 93.2927C129.275 93.3874 129.089 93.5188 128.952 93.687C128.816 93.8552 128.747 94.0498 128.747 94.2706C128.747 94.565 128.86 94.7984 129.085 94.9708C129.312 95.1454 129.589 95.2852 129.915 95.3904C130.241 95.4955 130.552 95.5954 130.846 95.69C131.194 95.7952 131.522 95.9318 131.831 96.1001C132.143 96.2683 132.398 96.4891 132.598 96.7625C132.798 97.0359 132.898 97.3934 132.898 97.835C132.898 98.3081 132.774 98.7339 132.526 99.1125C132.279 99.491 131.932 99.7906 131.484 100.011C131.038 100.232 130.51 100.343 129.899 100.343ZM131.635 94.3337L131.478 93.1508L132.488 93.3558V94.586H131.967C131.862 94.586 131.783 94.5629 131.73 94.5166C131.678 94.4682 131.646 94.4073 131.635 94.3337ZM128.274 98.0715L128.431 99.2544L127.421 99.0494V97.8192H127.942C128.058 97.8192 128.139 97.8423 128.185 97.8886C128.234 97.937 128.263 97.9979 128.274 98.0715ZM138.088 100.216H137.03L134.442 92.2203H135.547C135.789 92.2203 135.936 92.3201 135.989 92.5199L137.519 97.6615C137.562 97.8507 137.602 98.0316 137.639 98.204C137.675 98.3786 137.704 98.5552 137.725 98.7339C137.756 98.6078 137.788 98.4869 137.819 98.3712C137.851 98.2555 137.886 98.1399 137.924 98.0242C137.959 97.9086 137.998 97.7876 138.04 97.6615L139.729 92.4884C139.75 92.4043 139.795 92.3359 139.865 92.2833C139.932 92.2308 140.013 92.2045 140.108 92.2045H140.724C140.934 92.2045 141.065 92.2991 141.118 92.4884L142.775 97.6615C142.817 97.7771 142.854 97.8949 142.886 98.0148C142.917 98.1367 142.949 98.2555 142.981 98.3712C143.012 98.4869 143.038 98.6078 143.059 98.7339C143.08 98.6078 143.102 98.4837 143.123 98.3617C143.144 98.2419 143.17 98.121 143.201 97.999C143.233 97.8791 143.265 97.7666 143.296 97.6615L144.859 92.5199C144.88 92.4358 144.927 92.3643 145.001 92.3054C145.074 92.2486 145.164 92.2203 145.269 92.2203H146.327L143.738 100.216H142.618C142.491 100.216 142.397 100.127 142.333 99.9484L140.566 94.5229C140.524 94.4073 140.49 94.2863 140.465 94.1602C140.437 94.034 140.413 93.9131 140.392 93.7974C140.371 93.892 140.348 94.0024 140.323 94.1286C140.295 94.2548 140.255 94.3915 140.203 94.5387L138.419 99.9484C138.356 100.127 138.246 100.216 138.088 100.216ZM136.462 92.6145H135.278V92.2203H136.462V92.6145ZM145.743 92.6145H144.559V92.2203H145.743V92.6145ZM133.763 92.2203H135.373L135.199 93.4504L134.016 93.1981C133.931 93.1771 133.868 93.1403 133.826 93.0877C133.784 93.0351 133.763 92.9615 133.763 92.8669V92.2203ZM135.736 92.2203H137.346V92.8669C137.346 92.9615 137.325 93.0351 137.283 93.0877C137.241 93.1403 137.178 93.1771 137.093 93.1981L135.91 93.4504L135.736 92.2203ZM143.422 92.2203H145.032L144.859 93.4504L143.675 93.1981C143.591 93.1771 143.528 93.1403 143.486 93.0877C143.443 93.0351 143.422 92.9615 143.422 92.8669V92.2203ZM145.395 92.2203H147.005V92.8669C147.005 92.9615 146.984 93.0351 146.942 93.0877C146.9 93.1403 146.837 93.1771 146.753 93.1981L145.569 93.4504L145.395 92.2203ZM151.646 100.327C150.877 100.327 150.207 100.153 149.635 99.8064C149.06 99.4594 148.615 98.9653 148.299 98.3239C147.984 97.6825 147.826 96.9255 147.826 96.0528C147.826 95.3062 147.979 94.6333 148.284 94.034C148.589 93.4347 149.023 92.9615 149.587 92.6145C150.149 92.2676 150.809 92.0941 151.567 92.0941C152.23 92.0941 152.808 92.2413 153.303 92.5357C153.797 92.8301 154.185 93.2423 154.464 93.7722C154.742 94.3042 154.881 94.9382 154.881 95.6742C154.881 95.895 154.858 96.0422 154.812 96.1159C154.763 96.1895 154.671 96.2263 154.534 96.2263H149.215C149.215 96.2578 149.215 96.2914 149.215 96.3272C149.215 96.365 149.215 96.3997 149.215 96.4313C149.268 97.3145 149.515 98 149.957 98.4879C150.399 98.9779 150.998 99.2229 151.756 99.2229C152.082 99.2229 152.406 99.1566 152.728 99.0241C153.048 98.8938 153.332 98.7655 153.581 98.6393C153.827 98.5131 154.003 98.4501 154.108 98.4501C154.224 98.4501 154.313 98.4921 154.376 98.5762L154.771 99.0967C154.56 99.3701 154.279 99.5982 153.928 99.7812C153.574 99.9662 153.198 100.103 152.798 100.191C152.398 100.282 152.014 100.327 151.646 100.327ZM149.262 95.343H153.618C153.618 94.6911 153.44 94.1602 153.082 93.7501C152.724 93.34 152.23 93.135 151.598 93.135C150.914 93.135 150.378 93.3295 149.988 93.7186C149.599 94.1076 149.357 94.6491 149.262 95.343ZM158.401 100.216H156.996V92.2203H157.801C157.959 92.2203 158.069 92.2486 158.133 92.3054C158.196 92.3643 158.232 92.4673 158.243 92.6145L158.338 93.8605C158.611 93.3032 158.948 92.8669 159.348 92.5515C159.748 92.236 160.221 92.0783 160.768 92.0783C160.989 92.0783 161.189 92.1046 161.368 92.1572C161.547 92.2097 161.71 92.2781 161.857 92.3622L161.684 93.4189C161.673 93.482 161.644 93.5293 161.595 93.5608C161.549 93.5924 161.494 93.6082 161.431 93.6082C161.358 93.6082 161.216 93.584 161.005 93.5356C160.795 93.4893 160.61 93.4662 160.453 93.4662C159.969 93.4662 159.56 93.6082 159.228 93.892C158.897 94.1759 158.622 94.586 158.401 95.1222V100.216ZM159.537 100.216H157.927L158.101 98.9863L159.285 99.2386C159.369 99.2492 159.432 99.2828 159.474 99.3396C159.516 99.3985 159.537 99.4752 159.537 99.5698V100.216ZM157.47 100.216H155.86V99.5698C155.86 99.4752 155.881 99.3985 155.923 99.3396C155.965 99.2828 156.028 99.2492 156.112 99.2386L157.296 98.9863L157.47 100.216ZM155.86 92.2203H157.47L157.296 93.4504L156.112 93.1981C156.028 93.1771 155.965 93.1403 155.923 93.0877C155.881 93.0351 155.86 92.9615 155.86 92.8669V92.2203Z" fill="white"/>
</g>
</g>
</g>
</g>
<g clip-path="url(#clip9_35_7242)">
<g clip-path="url(#clip10_35_7242)">
<path d="M251.682 0.568359C231.06 0.568359 214.285 16.3983 214.285 35.8575C214.285 44.8074 217.841 53.3309 224.307 59.8987L222.825 62.8613C222.059 64.381 221.764 66.0939 221.976 67.7819C222.189 69.47 222.899 71.0566 224.017 72.3397L224.127 72.4658C225.287 73.7464 226.805 74.6496 228.484 75.0586C230.163 75.4676 231.927 75.3635 233.546 74.7598L244.787 70.5461C247.048 70.9445 249.368 71.1467 251.682 71.1467C272.301 71.1467 289.078 55.3167 289.078 35.8575C289.076 16.3983 272.301 0.568359 251.682 0.568359ZM251.185 57.895C248.344 57.905 246.255 55.7611 246.249 52.8325C246.243 49.8699 248.194 47.9822 251.269 47.9762C254.318 47.9702 256.277 49.8699 256.291 52.8445C256.305 55.7651 254.164 57.883 251.185 57.895ZM260.556 33.3173C259.22 34.3962 257.772 35.335 256.448 36.426C254.791 37.7892 253.715 39.5448 253.15 41.6366C252.607 43.6544 251.68 44.6072 250.464 44.6092C249.22 44.6112 248.272 43.5463 247.715 41.5185C246.543 37.2547 248.198 32.8128 252.006 29.9863C252.639 29.5159 253.31 29.0835 253.891 28.5551C255.051 27.5041 255.849 26.261 255.278 24.6156C254.687 22.9101 253.272 22.2015 251.62 22.0373C249.616 21.8371 247.743 22.3236 246.107 23.5627C245.959 23.6748 245.806 23.7808 245.654 23.8889C243.462 25.4723 241.407 25.4763 240.021 23.903C239.193 22.9718 238.757 21.7568 238.806 20.5121C238.854 19.2674 239.382 18.0895 240.279 17.2251C242.234 15.3274 244.61 14.1984 247.269 13.6919C248.402 13.4758 249.568 13.4157 250.568 13.3036C255.945 13.5999 260.372 15.3094 263.094 20.0776C265.745 24.7257 264.731 29.9443 260.556 33.3173Z" fill="#102E44"/>
<path d="M327.791 96.1251C334.314 89.5013 337.9 80.9037 337.9 71.8757C337.9 52.2484 320.978 36.2803 300.178 36.2803C299.579 36.2803 298.984 36.2963 298.392 36.3223C298.371 38.1519 298.231 39.9535 297.987 41.7251C298.712 41.679 299.441 41.647 300.178 41.647C318.015 41.647 332.527 55.207 332.527 71.8737C332.527 80.4553 328.586 88.6765 321.719 94.4256L321.168 94.888L324.482 101.514C324.783 102.107 324.896 102.778 324.807 103.437C324.718 104.096 324.431 104.713 323.983 105.205C323.537 105.696 322.953 106.043 322.308 106.2C321.663 106.357 320.986 106.317 320.363 106.086L307.594 101.302L307.334 101.358C304.982 101.853 302.584 102.103 300.18 102.102C284.401 102.102 271.233 91.489 268.403 77.5007C266.712 78.1241 264.988 78.652 263.239 79.0821C266.78 95.2663 281.997 107.469 300.18 107.469C302.514 107.469 304.854 107.265 307.136 106.863L318.474 111.112C320.107 111.723 321.887 111.829 323.581 111.417C325.276 111.004 326.807 110.092 327.975 108.798L328.086 108.672C329.213 107.378 329.929 105.777 330.143 104.075C330.357 102.372 330.059 100.645 329.288 99.1117L327.791 96.1251Z" fill="#102E44"/>
<path d="M318.168 77.8845C321.819 77.8845 324.778 74.927 324.778 71.2787C324.778 67.6304 321.819 64.6729 318.168 64.6729C314.517 64.6729 311.557 67.6304 311.557 71.2787C311.557 74.927 314.517 77.8845 318.168 77.8845Z" fill="#102E44"/>
<path d="M300.18 77.8845C303.831 77.8845 306.791 74.927 306.791 71.2787C306.791 67.6304 303.831 64.6729 300.18 64.6729C296.529 64.6729 293.57 67.6304 293.57 71.2787C293.57 74.927 296.529 77.8845 300.18 77.8845Z" fill="#102E44"/>
<path d="M286.12 65.9678C283.155 69.0502 279.781 71.7108 276.091 73.8747C276.603 75.0688 277.453 76.0871 278.537 76.8036C279.621 77.5201 280.891 77.9034 282.191 77.9063C283.95 77.9047 285.636 77.2059 286.88 75.9633C288.123 74.7207 288.822 73.0358 288.824 71.2785C288.821 70.2434 288.575 69.2236 288.105 68.3011C287.635 67.3786 286.955 66.5794 286.12 65.9678Z" fill="#102E44"/>
</g>
</g>
</g>
</g>
</g>
<defs>
<clipPath id="clip0_35_7242">
<rect width="338.25" height="110.864" fill="white" transform="translate(0 0.72168)"/>
</clipPath>
<clipPath id="clip1_35_7242">
<rect width="337.549" height="111.095" fill="white" transform="translate(0.350586 0.568359)"/>
</clipPath>
<clipPath id="clip2_35_7242">
<rect width="337.549" height="111.095" fill="white" transform="translate(0.350586 0.568359)"/>
</clipPath>
<clipPath id="clip3_35_7242">
<rect width="200.023" height="88.4542" fill="white" transform="translate(0.350586 11.8887)"/>
</clipPath>
<clipPath id="clip4_35_7242">
<rect width="200.023" height="88.4542" fill="white" transform="translate(0.350586 11.8887)"/>
</clipPath>
<clipPath id="clip5_35_7242">
<rect width="199.028" height="58.8833" fill="white" transform="translate(0.848145 11.8887)"/>
</clipPath>
<clipPath id="clip6_35_7242">
<rect width="199.028" height="58.8833" fill="white" transform="translate(0.848145 11.8887)"/>
</clipPath>
<clipPath id="clip7_35_7242">
<rect width="122.999" height="11.7499" fill="white" transform="translate(38.8625 88.5928)"/>
</clipPath>
<clipPath id="clip8_35_7242">
<rect width="122.999" height="11.7499" fill="white" transform="translate(38.8625 88.5928)"/>
</clipPath>
<clipPath id="clip9_35_7242">
<rect width="123.614" height="111.095" fill="white" transform="translate(214.285 0.568359)"/>
</clipPath>
<clipPath id="clip10_35_7242">
<rect width="123.614" height="111.095" fill="white" transform="translate(214.285 0.568359)"/>
</clipPath>
</defs>
</svg>
